<svg version="1.1" xmlns="http://www.w3.org/2000/svg" xmlns:xlink="http://www.w3.org/1999/xlink" width="489.66971" height="468.97298" viewBox="0,0,489.66971,468.97298"><defs><linearGradient x1="63.99998" y1="-52.98049" x2="63.99998" y2="413.98648" gradientUnits="userSpaceOnUse" id="color-1"><stop offset="0" stop-color="#ffffff"/><stop offset="1" stop-color="#005fff"/></linearGradient><linearGradient x1="408.66519" y1="179.49699" x2="541.33486" y2="179.49699" gradientUnits="userSpaceOnUse" id="color-2"><stop offset="0" stop-color="#ffffff"/><stop offset="1" stop-color="#005fff"/></linearGradient></defs><g transform="translate(-52.66515,54.9865)"><g data-paper-data="{&quot;isPaintingLayer&quot;:true}" fill-rule="nonzero" stroke-linecap="butt" stroke-linejoin="miter" stroke-miterlimit="10" stroke-dasharray="" stroke-dashoffset="0" style="mix-blend-mode: normal"><path d="M52.66515,413.98648v-466.96697h22.66967v466.96697z" fill="url(#color-1)" stroke="#ffffff" stroke-width="0"/><path d="M408.66519,412.98047v-466.96697h132.66967v466.96697z" fill="url(#color-2)" stroke="#ffffff" stroke-width="2"/><g fill="#ffffff" stroke="#000000" stroke-width="1"><path d="M469.45581,218.61488c0,1.73428 -0.29173,3.24763 -0.87518,4.54004c-0.58345,1.29241 -1.41014,2.2791 -2.48006,2.96005c-1.06992,0.68095 -2.318,1.02143 -3.74421,1.02143c-1.39406,0 -2.62995,-0.34229 -3.70765,-1.02688c-1.0777,-0.68458 -1.9145,-1.66115 -2.5104,-2.92971c-0.5959,-1.26856 -0.90189,-2.7373 -0.91797,-4.40624v-1.27659c0,-1.70161 0.29587,-3.20484 0.88763,-4.5097c0.59175,-1.30486 1.42855,-2.30373 2.5104,-2.99661c1.08185,-0.69289 2.31955,-1.03932 3.71309,-1.03932c1.41792,0 2.6678,0.34229 3.74966,1.02688c1.08185,0.68458 1.9145,1.67723 2.49796,2.97794c0.58345,1.30071 0.87518,2.81406 0.87518,4.54004v1.11867zM467.13367,217.47287c0,-2.09887 -0.42139,-3.70946 -1.26415,-4.83177c-0.84276,-1.12231 -2.02186,-1.68346 -3.53728,-1.68346c-1.47497,0 -2.63591,0.56115 -3.48282,1.68346c-0.84692,1.12231 -1.28256,2.68025 -1.30693,4.67385v1.30071c0,2.03405 0.42734,3.63245 1.28204,4.7952c0.8547,1.16276 2.03172,1.74414 3.53106,1.74414c1.50712,0 2.67403,-0.54897 3.50072,-1.64689c0.82669,-1.09793 1.25222,-2.67196 1.27659,-4.72208v-1.31316z"/><path d="M447.55145,219.73356h-4.1573v7.15936h-2.34626v-17.69807h5.85865c1.9936,0 3.52717,0.45379 4.60072,1.36139c1.07355,0.9076 1.61033,2.22853 1.61033,3.96281c0,1.10208 -0.29769,2.06231 -0.89307,2.8807c-0.59538,0.81839 -1.42388,1.43011 -2.48551,1.83515l4.1573,7.51176v0.14625h-2.50418zM443.39492,217.82528h3.58551c1.15861,0 2.08046,-0.29976 2.76557,-0.8993c0.68511,-0.59953 1.0274,-1.40184 1.02688,-2.40694c0,-1.09378 -0.32621,-1.9324 -0.97865,-2.51585c-0.65243,-0.58345 -1.59451,-0.87933 -2.82625,-0.88763h-3.57384v6.70971z"/><path d="M500.34227,219.00385c-2.00138,-0.57515 -3.45793,-1.2823 -4.36967,-2.12143c-0.91174,-0.83914 -1.36761,-1.87431 -1.36761,-3.10553c0,-1.39406 0.557,-2.54671 1.67101,-3.45793c1.11401,-0.91122 2.56253,-1.36709 4.34556,-1.36761c1.21566,0 2.29958,0.23494 3.25178,0.70481c0.9522,0.46987 1.68968,1.11815 2.21245,1.94484c0.52277,0.82669 0.78416,1.73013 0.78416,2.71033h-2.34626c0,-1.06992 -0.34048,-1.91061 -1.02143,-2.52207c-0.68095,-0.61146 -1.64119,-0.91744 -2.8807,-0.91797c-1.15083,0 -2.04831,0.25335 -2.69244,0.76004c-0.64413,0.50669 -0.9662,1.20969 -0.9662,2.10899c0,0.7214 0.30599,1.33131 0.91797,1.82971c0.61198,0.4984 1.65337,0.95427 3.1242,1.36761c1.47082,0.41334 2.62165,0.86921 3.45249,1.36761c0.83084,0.4984 1.44671,1.07978 1.8476,1.74414c0.40089,0.66436 0.60135,1.44644 0.60135,2.34626c0,1.43452 -0.55908,2.58327 -1.67723,3.44626c-1.11815,0.86299 -2.61335,1.29449 -4.48559,1.29449c-1.21566,0 -2.35015,-0.23286 -3.40348,-0.69859c-1.05333,-0.46573 -1.86575,-1.10389 -2.43728,-1.9145c-0.57153,-0.81061 -0.85729,-1.73039 -0.85729,-2.75934h2.34626c0,1.06992 0.39494,1.91476 1.1848,2.53452c0.78986,0.61976 1.84527,0.92963 3.1662,0.92963c1.23173,0 2.17589,-0.25127 2.83247,-0.75382c0.65658,-0.50255 0.98487,-1.18739 0.98487,-2.05453c0,-0.86714 -0.30392,-1.53773 -0.91174,-2.01175c-0.60783,-0.47402 -1.70991,-0.94208 -3.30623,-1.40418z"/><path d="M476.7731,221.31355l0.34074,2.33381l0.49866,-2.10276l3.50072,-12.34975h1.96896l3.41592,12.34975l0.48621,2.13933l0.37652,-2.38282l2.7469,-12.10704h2.34626l-4.2911,17.69807h-2.12688l-3.64697,-12.89664l-0.27928,-1.34894l-0.27928,1.34894l-3.78,12.89664h-2.12688l-4.27865,-17.69807h2.33381z"/></g><g fill="#ffffff" stroke="#000000" stroke-width="1"><path d="M441.21901,148.9895c-2.00138,-0.57515 -3.45793,-1.2823 -4.36967,-2.12143c-0.91174,-0.83914 -1.36761,-1.87431 -1.36761,-3.10553c0,-1.39406 0.557,-2.54671 1.67101,-3.45793c1.11401,-0.91122 2.56253,-1.36709 4.34556,-1.36761c1.21566,0 2.29958,0.23494 3.25178,0.70481c0.9522,0.46987 1.68968,1.11815 2.21245,1.94484c0.52277,0.82669 0.78416,1.73013 0.78416,2.71033h-2.34626c0,-1.06992 -0.34048,-1.91061 -1.02143,-2.52207c-0.68095,-0.61146 -1.64119,-0.91744 -2.8807,-0.91797c-1.15083,0 -2.04831,0.25335 -2.69244,0.76004c-0.64413,0.50669 -0.9662,1.20969 -0.9662,2.10899c0,0.7214 0.30599,1.33131 0.91797,1.82971c0.61198,0.4984 1.65337,0.95427 3.1242,1.36761c1.47082,0.41334 2.62165,0.86921 3.45249,1.36761c0.83084,0.4984 1.44671,1.07978 1.8476,1.74414c0.40089,0.66436 0.60135,1.44644 0.60135,2.34626c0,1.43452 -0.55908,2.58327 -1.67723,3.44626c-1.11815,0.86299 -2.61335,1.29449 -4.48559,1.29449c-1.21566,0 -2.35015,-0.23286 -3.40348,-0.69859c-1.05333,-0.46573 -1.86575,-1.10389 -2.43728,-1.9145c-0.57153,-0.81061 -0.85729,-1.73039 -0.85729,-2.75934h2.34626c0,1.06992 0.39494,1.91476 1.1848,2.53452c0.78986,0.61976 1.84527,0.92963 3.1662,0.92963c1.23173,0 2.17589,-0.25127 2.83247,-0.75382c0.65658,-0.50255 0.98487,-1.18739 0.98487,-2.05453c0,-0.86714 -0.30392,-1.53773 -0.91174,-2.01175c-0.60783,-0.47402 -1.70991,-0.94208 -3.30623,-1.40418z"/><path d="M463.80332,151.26264c-0.21886,1.87172 -0.90967,3.31609 -2.07242,4.33311c-1.16276,1.01702 -2.70852,1.52553 -4.63728,1.52553c-2.09057,0 -3.76599,-0.74967 -5.02625,-2.24902c-1.26026,-1.49934 -1.89039,-3.50486 -1.89039,-6.01657v-1.70213c0,-1.64508 0.2938,-3.09152 0.8814,-4.33933c0.5876,-1.24781 1.42026,-2.20597 2.49796,-2.87448c1.0777,-0.6685 2.32578,-1.00276 3.74421,-1.00276c1.88002,0 3.3874,0.52459 4.52215,1.57377c1.13475,1.04918 1.79522,2.50185 1.98141,4.358h-2.34626c-0.20278,-1.41014 -0.64232,-2.43131 -1.3186,-3.06352c-0.67628,-0.63221 -1.62226,-0.94831 -2.83791,-0.94831c-1.49105,0 -2.66002,0.55104 -3.50694,1.65312c-0.84692,1.10208 -1.27037,2.67014 -1.27037,4.70419v1.7138c0,1.92047 0.40116,3.44807 1.20347,4.58283c0.80231,1.13475 1.92462,1.70213 3.36691,1.70213c1.29656,0 2.29128,-0.2938 2.98417,-0.8814c0.69289,-0.5876 1.15265,-1.61059 1.37928,-3.06896h2.34626z"/><path d="M480.34692,148.60054c0,1.73428 -0.29173,3.24763 -0.87518,4.54004c-0.58345,1.29241 -1.41014,2.2791 -2.48006,2.96005c-1.06992,0.68095 -2.318,1.02143 -3.74421,1.02143c-1.39406,0 -2.62995,-0.34229 -3.70765,-1.02688c-1.0777,-0.68458 -1.9145,-1.66115 -2.5104,-2.92971c-0.5959,-1.26856 -0.90189,-2.7373 -0.91797,-4.40624v-1.27659c0,-1.70161 0.29587,-3.20484 0.88763,-4.5097c0.59175,-1.30486 1.42855,-2.30373 2.5104,-2.99661c1.08185,-0.69289 2.31955,-1.03932 3.71309,-1.03932c1.41792,0 2.6678,0.34229 3.74966,1.02688c1.08185,0.68458 1.9145,1.67723 2.49796,2.97794c0.58345,1.30071 0.87518,2.81406 0.87518,4.54004v1.11867zM478.02478,147.45852c0,-2.09887 -0.42139,-3.70946 -1.26415,-4.83177c-0.84276,-1.12231 -2.02186,-1.68346 -3.53728,-1.68346c-1.47497,0 -2.63591,0.56115 -3.48282,1.68346c-0.84692,1.12231 -1.28256,2.68025 -1.30693,4.67385v1.30071c0,2.03405 0.42734,3.63245 1.28204,4.7952c0.8547,1.16276 2.03172,1.74414 3.53106,1.74414c1.50712,0 2.67403,-0.54897 3.50072,-1.64689c0.82669,-1.09793 1.25222,-2.67196 1.27659,-4.72208v-1.31316z"/><path d="M507.85398,148.69778h-7.66968v6.27251h8.90971v1.90828h-11.24353v-17.69807h11.12217v1.92073h-8.78836v5.68905h7.66968v1.90828z"/><path d="M489.56004,149.71921h-4.1573v7.15936h-2.34626v-17.69807h5.85865c1.9936,0 3.52717,0.45379 4.60072,1.36139c1.07355,0.9076 1.61033,2.22853 1.61033,3.96281c0,1.10208 -0.29769,2.06231 -0.89307,2.8807c-0.59538,0.81839 -1.42388,1.43011 -2.48551,1.83515l4.1573,7.51176v0.14625h-2.50418zM485.40352,147.81093h3.58551c1.15861,0 2.08046,-0.29976 2.76557,-0.8993c0.68511,-0.59953 1.0274,-1.40184 1.02688,-2.40694c0,-1.09378 -0.32621,-1.9324 -0.97865,-2.51585c-0.65243,-0.58345 -1.59451,-0.87933 -2.82625,-0.88763h-3.57384v6.70971z"/></g><g fill="#ffffff" stroke="#000000" stroke-width="1"><path d="M501.12021,267.43044c-2.00138,-0.57515 -3.45793,-1.2823 -4.36967,-2.12143c-0.91174,-0.83914 -1.36761,-1.87431 -1.36761,-3.10553c0,-1.39406 0.557,-2.54671 1.67101,-3.45793c1.11401,-0.91122 2.56253,-1.36709 4.34556,-1.36761c1.21566,0 2.29958,0.23494 3.25178,0.70481c0.9522,0.46987 1.68968,1.11815 2.21245,1.94484c0.52277,0.82669 0.78416,1.73013 0.78416,2.71033h-2.34626c0,-1.06992 -0.34048,-1.91061 -1.02143,-2.52207c-0.68095,-0.61146 -1.64119,-0.91744 -2.8807,-0.91797c-1.15083,0 -2.04831,0.25335 -2.69244,0.76004c-0.64413,0.50669 -0.9662,1.20969 -0.9662,2.10899c0,0.7214 0.30599,1.33131 0.91797,1.82971c0.61198,0.4984 1.65337,0.95427 3.1242,1.36761c1.47082,0.41334 2.62165,0.86921 3.45249,1.36761c0.83084,0.4984 1.44671,1.07978 1.8476,1.74414c0.40089,0.66436 0.60135,1.44644 0.60135,2.34626c0,1.43452 -0.55908,2.58327 -1.67723,3.44626c-1.11815,0.86299 -2.61335,1.29449 -4.48559,1.29449c-1.21566,0 -2.35015,-0.23286 -3.40348,-0.69859c-1.05333,-0.46573 -1.86575,-1.10389 -2.43728,-1.9145c-0.57153,-0.81061 -0.85729,-1.73039 -0.85729,-2.75934h2.34626c0,1.06992 0.39494,1.91476 1.1848,2.53452c0.78986,0.61976 1.84527,0.92963 3.1662,0.92963c1.23173,0 2.17589,-0.25127 2.83247,-0.75382c0.65658,-0.50255 0.98487,-1.18739 0.98487,-2.05453c0,-0.86714 -0.30392,-1.53773 -0.91174,-2.01175c-0.60783,-0.47402 -1.70991,-0.94208 -3.30623,-1.40418z"/><path d="M440.28316,275.12502v-17.69807h5.7863c1.92047,0 3.36484,0.397 4.33311,1.19102c0.96828,0.79402 1.45241,1.96896 1.45241,3.52483c0,0.82669 -0.23494,1.55795 -0.70481,2.19378c-0.46987,0.63583 -1.11012,1.12801 -1.92073,1.47652c0.95634,0.26761 1.71198,0.77612 2.26691,1.52553c0.55493,0.74941 0.83239,1.64275 0.83239,2.67999c0,1.58855 -0.51447,2.83662 -1.54343,3.74421c-1.02895,0.9076 -2.48343,1.36139 -4.36345,1.36139h-6.1387zM442.61697,266.84699v6.36975h3.85312c1.086,0 1.94303,-0.28161 2.57108,-0.84484c0.62805,-0.56323 0.94208,-1.33909 0.94208,-2.32759c0,-2.13103 -1.15887,-3.19654 -3.4766,-3.19654h-3.88969zM442.61697,264.97527h3.52483c1.02117,0 1.83749,-0.25516 2.44895,-0.76549c0.61146,-0.51033 0.91744,-1.20321 0.91797,-2.07865c0,-0.97242 -0.28369,-1.67957 -0.85106,-2.12143c-0.56737,-0.44187 -1.43037,-0.6628 -2.58898,-0.6628h-3.45249v5.6276z"/><path d="M464.45095,270.50641h-7.41452l-1.66556,4.61939h-2.40694l6.75872,-17.69807h2.04209l6.77039,17.69807h-2.39449zM457.74124,268.58568h6.01657l-3.01451,-8.27803z"/><path d="M472.38474,273.21674h8.38694v1.90828h-10.7332v-17.69807h2.34626z"/><path d="M485.02622,273.21674h8.38694v1.90828h-10.7332v-17.69807h2.34626z"/></g></g></g></svg>