<svg version="1.1" xmlns="http://www.w3.org/2000/svg" xmlns:xlink="http://www.w3.org/1999/xlink" width="490.66971" height="469.97298" viewBox="0,0,490.66971,469.97298"><defs><linearGradient x1="51.91293" y1="179.84984" x2="74.58261" y2="179.84984" gradientUnits="userSpaceOnUse" id="color-1"><stop offset="0" stop-color="#005fff"/><stop offset="1" stop-color="#ffffff"/></linearGradient><linearGradient x1="407.91297" y1="178.84383" x2="540.58264" y2="178.84383" gradientUnits="userSpaceOnUse" id="color-2"><stop offset="0" stop-color="#ffffff"/><stop offset="1" stop-color="#005fff"/></linearGradient></defs><g transform="translate(-50.91293,55.63966)"><g data-paper-data="{&quot;isPaintingLayer&quot;:true}" fill-rule="nonzero" stroke-width="2" stroke-linecap="butt" stroke-linejoin="miter" stroke-miterlimit="10" stroke-dasharray="" stroke-dashoffset="0" style="mix-blend-mode: normal"><path d="M51.91293,413.33332v-466.96697h22.66967v466.96697z" fill="url(#color-1)" stroke="#ffffff"/><path d="M407.91297,412.32731v-466.96697h132.66967v466.96697z" fill="url(#color-2)" stroke="#ffffff"/><g fill="#ffffff" stroke="#000000"><path d="M467.14101,202.359c0,2.22933 -0.375,4.17467 -1.125,5.836c-0.75,1.66133 -1.81267,2.92967 -3.188,3.805c-1.37533,0.87533 -2.97967,1.313 -4.813,1.313c-1.792,0 -3.38067,-0.44 -4.766,-1.32c-1.38533,-0.88 -2.461,-2.13533 -3.227,-3.766c-0.766,-1.63067 -1.15933,-3.51867 -1.18,-5.664v-1.641c0,-2.18733 0.38033,-4.11967 1.141,-5.797c0.76067,-1.67733 1.83633,-2.96133 3.227,-3.852c1.39067,-0.89067 2.98167,-1.336 4.773,-1.336c1.82267,0 3.42933,0.44 4.82,1.32c1.39067,0.88 2.461,2.156 3.211,3.828c0.75,1.672 1.125,3.61733 1.125,5.836v1.438zM464.15601,200.891c0,-2.698 -0.54167,-4.76833 -1.625,-6.211c-1.08333,-1.44267 -2.599,-2.164 -4.547,-2.164c-1.896,0 -3.38833,0.72133 -4.477,2.164c-1.08867,1.44267 -1.64867,3.44533 -1.68,6.008v1.672c0,2.61467 0.54933,4.66933 1.648,6.164c1.09867,1.49467 2.61167,2.242 4.539,2.242c1.93733,0 3.43733,-0.70567 4.5,-2.117c1.06267,-1.41133 1.60967,-3.43467 1.641,-6.07v-1.688z"/><path d="M438.98403,203.797h-5.344v9.203h-3.016v-22.75h7.531c2.56267,0 4.534,0.58333 5.914,1.75c1.38,1.16667 2.07,2.86467 2.07,5.094c0,1.41667 -0.38267,2.651 -1.148,3.703c-0.76533,1.052 -1.83033,1.83833 -3.195,2.359l5.344,9.656v0.188h-3.219zM433.64101,201.344h4.609c1.48933,0 2.67433,-0.38533 3.555,-1.156c0.88067,-0.77067 1.32067,-1.802 1.32,-3.094c0,-1.406 -0.41933,-2.484 -1.258,-3.234c-0.83867,-0.75 -2.04967,-1.13033 -3.633,-1.141h-4.594v8.625z"/><path d="M506.84403,202.859c-2.57267,-0.73933 -4.445,-1.64833 -5.617,-2.727c-1.172,-1.07867 -1.758,-2.40933 -1.758,-3.992c0,-1.792 0.716,-3.27367 2.148,-4.445c1.432,-1.17133 3.294,-1.75733 5.586,-1.758c1.56267,0 2.956,0.302 4.18,0.906c1.224,0.604 2.172,1.43733 2.844,2.5c0.672,1.06267 1.008,2.224 1.008,3.484h-3.016c0,-1.37533 -0.43767,-2.456 -1.313,-3.242c-0.87533,-0.786 -2.10967,-1.17933 -3.703,-1.18c-1.47933,0 -2.633,0.32567 -3.461,0.977c-0.828,0.65133 -1.242,1.555 -1.242,2.711c0,0.92733 0.39333,1.71133 1.18,2.352c0.78667,0.64067 2.12533,1.22667 4.016,1.758c1.89067,0.53133 3.37,1.11733 4.438,1.758c1.068,0.64067 1.85967,1.388 2.375,2.242c0.51533,0.854 0.773,1.85933 0.773,3.016c0,1.844 -0.71867,3.32067 -2.156,4.43c-1.43733,1.10933 -3.35933,1.664 -5.766,1.664c-1.56267,0 -3.021,-0.29933 -4.375,-0.898c-1.354,-0.59867 -2.39833,-1.419 -3.133,-2.461c-0.73467,-1.042 -1.102,-2.22433 -1.102,-3.547h3.016c0,1.37533 0.50767,2.46133 1.523,3.258c1.01533,0.79667 2.372,1.195 4.07,1.195c1.58333,0 2.797,-0.323 3.641,-0.969c0.844,-0.646 1.266,-1.52633 1.266,-2.641c0,-1.11467 -0.39067,-1.97667 -1.172,-2.586c-0.78133,-0.60933 -2.198,-1.211 -4.25,-1.805z"/><path d="M476.54702,205.828l0.438,3l0.641,-2.703l4.5,-15.875h2.531l4.391,15.875l0.625,2.75l0.484,-3.063l3.531,-15.563h3.016l-5.516,22.75h-2.734l-4.688,-16.578l-0.359,-1.734l-0.359,1.734l-4.859,16.578h-2.734l-5.5,-22.75h3z"/></g><g fill="#ffffff" stroke="#000000"><path d="M430.844,112.859c-2.57267,-0.73933 -4.445,-1.64833 -5.617,-2.727c-1.172,-1.07867 -1.758,-2.40933 -1.758,-3.992c0,-1.792 0.716,-3.27367 2.148,-4.445c1.432,-1.17133 3.294,-1.75733 5.586,-1.758c1.56267,0 2.956,0.302 4.18,0.906c1.224,0.604 2.172,1.43733 2.844,2.5c0.672,1.06267 1.008,2.224 1.008,3.484h-3.016c0,-1.37533 -0.43767,-2.456 -1.313,-3.242c-0.87533,-0.786 -2.10967,-1.17933 -3.703,-1.18c-1.47933,0 -2.633,0.32567 -3.461,0.977c-0.828,0.65133 -1.242,1.555 -1.242,2.711c0,0.92733 0.39333,1.71133 1.18,2.352c0.78667,0.64067 2.12533,1.22667 4.016,1.758c1.89067,0.53133 3.37,1.11733 4.438,1.758c1.068,0.64067 1.85967,1.388 2.375,2.242c0.51533,0.854 0.773,1.85933 0.773,3.016c0,1.844 -0.71867,3.32067 -2.156,4.43c-1.43733,1.10933 -3.35933,1.664 -5.766,1.664c-1.56267,0 -3.021,-0.29933 -4.375,-0.898c-1.354,-0.59867 -2.39833,-1.419 -3.133,-2.461c-0.73467,-1.042 -1.102,-2.22433 -1.102,-3.547h3.016c0,1.37533 0.50767,2.46133 1.523,3.258c1.01533,0.79667 2.372,1.195 4.07,1.195c1.58333,0 2.797,-0.323 3.641,-0.969c0.844,-0.646 1.266,-1.52633 1.266,-2.641c0,-1.11467 -0.39067,-1.97667 -1.172,-2.586c-0.78133,-0.60933 -2.198,-1.211 -4.25,-1.805z"/><path d="M459.87501,115.781c-0.28133,2.406 -1.16933,4.26267 -2.664,5.57c-1.49467,1.30733 -3.48167,1.961 -5.961,1.961c-2.68733,0 -4.841,-0.96367 -6.461,-2.891c-1.62,-1.92733 -2.43,-4.50533 -2.43,-7.734v-2.188c0,-2.11467 0.37767,-3.974 1.133,-5.578c0.75533,-1.604 1.82567,-2.83567 3.211,-3.695c1.38533,-0.85933 2.98967,-1.289 4.813,-1.289c2.41667,0 4.35433,0.67433 5.813,2.023c1.45867,1.34867 2.30767,3.216 2.547,5.602h-3.016c-0.26067,-1.81267 -0.82567,-3.12533 -1.695,-3.938c-0.86933,-0.81267 -2.08533,-1.219 -3.648,-1.219c-1.91667,0 -3.41933,0.70833 -4.508,2.125c-1.08867,1.41667 -1.633,3.43233 -1.633,6.047v2.203c0,2.46867 0.51567,4.43233 1.547,5.891c1.03133,1.45867 2.474,2.188 4.328,2.188c1.66667,0 2.94533,-0.37767 3.836,-1.133c0.89067,-0.75533 1.48167,-2.07033 1.773,-3.945h3.016z"/><path d="M481.141,112.359c0,2.22933 -0.375,4.17467 -1.125,5.836c-0.75,1.66133 -1.81267,2.92967 -3.188,3.805c-1.37533,0.87533 -2.97967,1.313 -4.813,1.313c-1.792,0 -3.38067,-0.44 -4.766,-1.32c-1.38533,-0.88 -2.461,-2.13533 -3.227,-3.766c-0.766,-1.63067 -1.15933,-3.51867 -1.18,-5.664v-1.641c0,-2.18733 0.38033,-4.11967 1.141,-5.797c0.76067,-1.67733 1.83633,-2.96133 3.227,-3.852c1.39067,-0.89067 2.98167,-1.336 4.773,-1.336c1.82267,0 3.42933,0.44 4.82,1.32c1.39067,0.88 2.461,2.156 3.211,3.828c0.75,1.672 1.125,3.61733 1.125,5.836v1.438zM478.156,110.891c0,-2.698 -0.54167,-4.76833 -1.625,-6.211c-1.08333,-1.44267 -2.599,-2.164 -4.547,-2.164c-1.896,0 -3.38833,0.72133 -4.477,2.164c-1.08867,1.44267 -1.64867,3.44533 -1.68,6.008v1.672c0,2.61467 0.54933,4.66933 1.648,6.164c1.09867,1.49467 2.61167,2.242 4.539,2.242c1.93733,0 3.43733,-0.70567 4.5,-2.117c1.06267,-1.41133 1.60967,-3.43467 1.641,-6.07v-1.688z"/><path d="M516.50001,112.484h-9.859v8.063h11.453v2.453h-14.453v-22.75h14.297v2.469h-11.297v7.313h9.859v2.453z"/><path d="M492.984,113.797h-5.344v9.203h-3.016v-22.75h7.531c2.56267,0 4.534,0.58333 5.914,1.75c1.38,1.16667 2.07,2.86467 2.07,5.094c0,1.41667 -0.38267,2.651 -1.148,3.703c-0.76533,1.052 -1.83033,1.83833 -3.195,2.359l5.344,9.656v0.188h-3.219zM487.641,111.344h4.609c1.48933,0 2.67433,-0.38533 3.555,-1.156c0.88067,-0.77067 1.32067,-1.802 1.32,-3.094c0,-1.406 -0.41933,-2.484 -1.258,-3.234c-0.83867,-0.75 -2.04967,-1.13033 -3.633,-1.141h-4.594v8.625z"/></g><g fill="#ffffff" stroke="#000000"><path d="M507.84403,265.109c-2.57267,-0.73933 -4.445,-1.64833 -5.617,-2.727c-1.172,-1.07867 -1.758,-2.40933 -1.758,-3.992c0,-1.792 0.716,-3.27367 2.148,-4.445c1.432,-1.17133 3.294,-1.75733 5.586,-1.758c1.56267,0 2.956,0.302 4.18,0.906c1.224,0.604 2.172,1.43733 2.844,2.5c0.672,1.06267 1.008,2.224 1.008,3.484h-3.016c0,-1.37533 -0.43767,-2.456 -1.313,-3.242c-0.87533,-0.786 -2.10967,-1.17933 -3.703,-1.18c-1.47933,0 -2.633,0.32567 -3.461,0.977c-0.828,0.65133 -1.242,1.555 -1.242,2.711c0,0.92733 0.39333,1.71133 1.18,2.352c0.78667,0.64067 2.12533,1.22667 4.016,1.758c1.89067,0.53133 3.37,1.11733 4.438,1.758c1.068,0.64067 1.85967,1.388 2.375,2.242c0.51533,0.854 0.773,1.85933 0.773,3.016c0,1.844 -0.71867,3.32067 -2.156,4.43c-1.43733,1.10933 -3.35933,1.664 -5.766,1.664c-1.56267,0 -3.021,-0.29933 -4.375,-0.898c-1.354,-0.59867 -2.39833,-1.419 -3.133,-2.461c-0.73467,-1.042 -1.102,-2.22433 -1.102,-3.547h3.016c0,1.37533 0.50767,2.46133 1.523,3.258c1.01533,0.79667 2.372,1.195 4.07,1.195c1.58333,0 2.797,-0.323 3.641,-0.969c0.844,-0.646 1.266,-1.52633 1.266,-2.641c0,-1.11467 -0.39067,-1.97667 -1.172,-2.586c-0.78133,-0.60933 -2.198,-1.211 -4.25,-1.805z"/><path d="M429.641,275v-22.75h7.438c2.46867,0 4.32533,0.51033 5.57,1.531c1.24467,1.02067 1.867,2.531 1.867,4.531c0,1.06267 -0.302,2.00267 -0.906,2.82c-0.604,0.81733 -1.427,1.45 -2.469,1.898c1.22933,0.344 2.20067,0.99767 2.914,1.961c0.71333,0.96333 1.07,2.11167 1.07,3.445c0,2.042 -0.66133,3.64633 -1.984,4.813c-1.32267,1.16667 -3.19233,1.75 -5.609,1.75h-7.891zM432.641,264.359v8.188h4.953c1.396,0 2.49767,-0.362 3.305,-1.086c0.80733,-0.724 1.211,-1.72133 1.211,-2.992c0,-2.73933 -1.48967,-4.109 -4.469,-4.109h-5zM432.641,261.953h4.531c1.31267,0 2.362,-0.328 3.148,-0.984c0.786,-0.656 1.17933,-1.54667 1.18,-2.672c0,-1.25 -0.36467,-2.159 -1.094,-2.727c-0.72933,-0.568 -1.83867,-0.852 -3.328,-0.852h-4.438v7.234z"/><path d="M460.70751,269.063h-9.531l-2.141,5.938h-3.094l8.688,-22.75h2.625l8.703,22.75h-3.078zM452.08251,266.594h7.734l-3.875,-10.641z"/><path d="M470.906,272.547h10.781v2.453h-13.797v-22.75h3.016z"/><path d="M487.156,272.547h10.781v2.453h-13.797v-22.75h3.016z"/></g></g></g></svg>