<svg version="1.1" xmlns="http://www.w3.org/2000/svg" xmlns:xlink="http://www.w3.org/1999/xlink" width="78.4" height="78.4" viewBox="0,0,78.4,78.4"><defs><linearGradient x1="271.24947" y1="162.50337" x2="244.74672" y2="189.63771" gradientUnits="userSpaceOnUse" id="color-1"><stop offset="0" stop-color="#ffffff"/><stop offset="1" stop-color="#ff8d8d"/></linearGradient><linearGradient x1="209.01344" y1="162.01596" x2="235.51619" y2="189.50651" gradientUnits="userSpaceOnUse" id="color-2"><stop offset="0" stop-color="#ffffff"/><stop offset="1" stop-color="#ff8d8d"/></linearGradient><linearGradient x1="240.51241" y1="146.66205" x2="240.51241" y2="198.81292" gradientUnits="userSpaceOnUse" id="color-3"><stop offset="0" stop-color="#fff5f5"/><stop offset="1" stop-color="#ff8f8f"/></linearGradient></defs><g transform="translate(-200.8,-140.8)"><g data-paper-data="{&quot;isPaintingLayer&quot;:true}" stroke-linejoin="miter" stroke-miterlimit="10" stroke-dasharray="" stroke-dashoffset="0" style="mix-blend-mode: normal"><path d="M203.3,209.9c0,-8.78257 0,-47.6554 0,-61.6c0,-3.12661 2.48345,-5 5.2,-5c7.82752,0 46.3726,0 61.8,0c3.96258,0 6.4,2.9192 6.4,6c0,8.12015 0,45.15113 0,60.6c0,4.19609 -2.43742,6.8 -6.4,6.8c-15.4274,0 -53.97249,0 -61.8,0c-2.71655,0 -5.2,-3.36444 -5.2,-6.8z" fill="#022d3a" fill-rule="nonzero" stroke="#000000" stroke-width="5" stroke-linecap="butt"/><path d="M230.25,207h19.5" fill="none" fill-rule="nonzero" stroke="#fbfbfb" stroke-width="4" stroke-linecap="round"/><g data-paper-data="{&quot;index&quot;:null}" fill-rule="evenodd" stroke-width="1" stroke-linecap="butt"><path d="M254.41238,209.12572v-4.78505h7.82516l-1.86738,-2.62289l11.29029,4.95526l-10.90012,5.22937l1.55475,-2.73978z" fill="#12fcef" stroke="#000000"/><path d="M265.66053,206.14738c2.50193,0.00273 2.13958,-0.00547 4.64235,0.00342l1.2042,0.68016l-1.2042,0.53319l-4.64234,0.0041c-3.45754,0 -11.29619,0.81824 -11.29619,0.81619v-3.12737c0,0 7.83865,1.09031 11.29618,1.09031z" fill="#ffffff" stroke="none" opacity="0.95455"/></g><g data-paper-data="{&quot;index&quot;:null}" fill-rule="evenodd" stroke-width="1" stroke-linecap="butt"><path d="M225.61242,204.49447v4.78505h-7.82516l1.86738,2.62289l-11.29028,-4.95525l10.90013,-5.22938l-1.55475,2.73978z" fill="#12fcef" stroke="#000000"/><path d="M214.36427,207.47282c-2.50194,-0.00273 -2.13957,0.00547 -4.64235,-0.00342l-1.2042,-0.68016l1.2042,-0.53319l4.64234,-0.0041c3.45754,0 11.29618,-0.81824 11.29619,-0.81619v3.12736c0,0 -7.83864,-1.09031 -11.29618,-1.09031z" fill="#ffffff" stroke="none" opacity="0.95455"/></g><path d="M273.53367,162.05498c-4.37678,1.76455 -11.62908,9.93643 -11.62908,9.93643c0.55712,-2.25181 0.52568,-3.98989 0.41271,-5.02415c-13.29354,5.25387 -16.36189,20.39953 -13.40033,32.66469c-2.14241,-7.2856 -4.41267,-13.10682 -7.71645,-7.09717c-3.41194,-13.78161 12.56308,-25.30675 20.22996,-27.7526c-0.70648,-0.922 -2.01699,-2.23737 -4.24104,-3.23769c0,0 11.27647,0.87747 16.3442,0.51012z" fill="url(#color-1)" fill-rule="nonzero" stroke="#000000" stroke-width="2" stroke-linecap="butt"/><path d="M206.72928,161.56131c5.06773,0.37218 16.3442,-0.51681 16.3442,-0.51681c-2.22405,1.01345 -3.53456,2.34608 -4.24104,3.28019c7.66689,2.47796 23.6419,14.1544 20.22996,28.11693c-3.30378,-6.08854 -5.57404,-0.1909 -7.71645,7.19034c2.96156,-12.42618 -0.10679,-27.77067 -13.40033,-33.09351c-0.11297,1.04783 -0.14441,2.80873 0.41271,5.0901c0,0 -7.25231,-8.27916 -11.62909,-10.06687z" data-paper-data="{&quot;index&quot;:null}" fill="url(#color-2)" fill-rule="nonzero" stroke="#000000" stroke-width="2" stroke-linecap="butt"/><path d="M243.28276,198.81292h-5.72471v-23.65999l-3.13796,5.64617l5.92834,-34.13705l6.25629,32.9574l-3.2778,-4.70091z" fill="url(#color-3)" fill-rule="evenodd" stroke="#000000" stroke-width="1" stroke-linecap="butt"/></g></g></svg>