<svg version="1.1" xmlns="http://www.w3.org/2000/svg" xmlns:xlink="http://www.w3.org/1999/xlink" width="78.4" height="78.4" viewBox="0,0,78.4,78.4"><defs><radialGradient cx="218.66667" cy="200.88158" r="10.00344" fx="218.66667" fy="200.88158" gradientUnits="userSpaceOnUse" id="color-1"><stop offset="0" stop-color="#fcfc9e"/><stop offset="0.0625" stop-color="#fafa8f"/><stop offset="0.125" stop-color="#fbfb7a"/><stop offset="0.1875" stop-color="#fcf860"/><stop offset="0.25" stop-color="#fbf347"/><stop offset="0.3125" stop-color="#faef2e"/><stop offset="0.375" stop-color="#f8e81c"/><stop offset="0.4375" stop-color="#f1d816"/><stop offset="0.5" stop-color="#f0c122"/><stop offset="0.5625" stop-color="#f8a932"/><stop offset="0.625" stop-color="#f89627"/><stop offset="0.6875" stop-color="#f48419"/><stop offset="0.75" stop-color="#eb7609"/><stop offset="0.8125" stop-color="#da6b03"/><stop offset="0.875" stop-color="#c85f00"/><stop offset="0.9375" stop-color="#b45500"/><stop offset="1" stop-color="#a24e01"/></radialGradient><radialGradient cx="264.00001" cy="181.54824" r="10.00344" fx="264.00001" fy="181.54824" gradientUnits="userSpaceOnUse" id="color-2"><stop offset="0" stop-color="#fcfc9e"/><stop offset="0.0625" stop-color="#fafa8f"/><stop offset="0.125" stop-color="#fbfb7a"/><stop offset="0.1875" stop-color="#fcf860"/><stop offset="0.25" stop-color="#fbf347"/><stop offset="0.3125" stop-color="#faef2e"/><stop offset="0.375" stop-color="#f8e81c"/><stop offset="0.4375" stop-color="#f1d816"/><stop offset="0.5" stop-color="#f0c122"/><stop offset="0.5625" stop-color="#f8a932"/><stop offset="0.625" stop-color="#f89627"/><stop offset="0.6875" stop-color="#f48419"/><stop offset="0.75" stop-color="#eb7609"/><stop offset="0.8125" stop-color="#da6b03"/><stop offset="0.875" stop-color="#c85f00"/><stop offset="0.9375" stop-color="#b45500"/><stop offset="1" stop-color="#a24e01"/></radialGradient><radialGradient cx="222.66667" cy="158.88158" r="10.00344" fx="222.66667" fy="158.88158" gradientUnits="userSpaceOnUse" id="color-3"><stop offset="0" stop-color="#fcfc9e"/><stop offset="0.0625" stop-color="#fafa8f"/><stop offset="0.125" stop-color="#fbfb7a"/><stop offset="0.1875" stop-color="#fcf860"/><stop offset="0.25" stop-color="#fbf347"/><stop offset="0.3125" stop-color="#faef2e"/><stop offset="0.375" stop-color="#f8e81c"/><stop offset="0.4375" stop-color="#f1d816"/><stop offset="0.5" stop-color="#f0c122"/><stop offset="0.5625" stop-color="#f8a932"/><stop offset="0.625" stop-color="#f89627"/><stop offset="0.6875" stop-color="#f48419"/><stop offset="0.75" stop-color="#eb7609"/><stop offset="0.8125" stop-color="#da6b03"/><stop offset="0.875" stop-color="#c85f00"/><stop offset="0.9375" stop-color="#b45500"/><stop offset="1" stop-color="#a24e01"/></radialGradient><radialGradient cx="251.07653" cy="170.71491" r="14.26026" fx="251.07653" fy="170.71491" gradientUnits="userSpaceOnUse" id="color-4"><stop offset="0" stop-color="#fcfc9e"/><stop offset="0.0625" stop-color="#fafa8f"/><stop offset="0.125" stop-color="#fbfb7a"/><stop offset="0.1875" stop-color="#fcf860"/><stop offset="0.25" stop-color="#fbf347"/><stop offset="0.3125" stop-color="#faef2e"/><stop offset="0.375" stop-color="#f8e81c"/><stop offset="0.4375" stop-color="#f1d816"/><stop offset="0.5" stop-color="#f0c122"/><stop offset="0.5625" stop-color="#f8a932"/><stop offset="0.625" stop-color="#f89627"/><stop offset="0.6875" stop-color="#f48419"/><stop offset="0.75" stop-color="#eb7609"/><stop offset="0.8125" stop-color="#da6b03"/><stop offset="0.875" stop-color="#c85f00"/><stop offset="0.9375" stop-color="#b45500"/><stop offset="1" stop-color="#a24e01"/></radialGradient><radialGradient cx="227.00001" cy="171.54824" r="10.00344" fx="227.00001" fy="171.54824" gradientUnits="userSpaceOnUse" id="color-5"><stop offset="0" stop-color="#fcfc9e"/><stop offset="0.0625" stop-color="#fafa8f"/><stop offset="0.125" stop-color="#fbfb7a"/><stop offset="0.1875" stop-color="#fcf860"/><stop offset="0.25" stop-color="#fbf347"/><stop offset="0.3125" stop-color="#faef2e"/><stop offset="0.375" stop-color="#f8e81c"/><stop offset="0.4375" stop-color="#f1d816"/><stop offset="0.5" stop-color="#f0c122"/><stop offset="0.5625" stop-color="#f8a932"/><stop offset="0.625" stop-color="#f89627"/><stop offset="0.6875" stop-color="#f48419"/><stop offset="0.75" stop-color="#eb7609"/><stop offset="0.8125" stop-color="#da6b03"/><stop offset="0.875" stop-color="#c85f00"/><stop offset="0.9375" stop-color="#b45500"/><stop offset="1" stop-color="#a24e01"/></radialGradient><radialGradient cx="262.00001" cy="156.54824" r="10.00344" fx="262.00001" fy="156.54824" gradientUnits="userSpaceOnUse" id="color-6"><stop offset="0" stop-color="#fcfc9e"/><stop offset="0.0625" stop-color="#fafa8f"/><stop offset="0.125" stop-color="#fbfb7a"/><stop offset="0.1875" stop-color="#fcf860"/><stop offset="0.25" stop-color="#fbf347"/><stop offset="0.3125" stop-color="#faef2e"/><stop offset="0.375" stop-color="#f8e81c"/><stop offset="0.4375" stop-color="#f1d816"/><stop offset="0.5" stop-color="#f0c122"/><stop offset="0.5625" stop-color="#f8a932"/><stop offset="0.625" stop-color="#f89627"/><stop offset="0.6875" stop-color="#f48419"/><stop offset="0.75" stop-color="#eb7609"/><stop offset="0.8125" stop-color="#da6b03"/><stop offset="0.875" stop-color="#c85f00"/><stop offset="0.9375" stop-color="#b45500"/><stop offset="1" stop-color="#a24e01"/></radialGradient><radialGradient cx="236.40987" cy="194.71491" r="14.26026" fx="236.40987" fy="194.71491" gradientUnits="userSpaceOnUse" id="color-7"><stop offset="0" stop-color="#fcfc9e"/><stop offset="0.0625" stop-color="#fafa8f"/><stop offset="0.125" stop-color="#fbfb7a"/><stop offset="0.1875" stop-color="#fcf860"/><stop offset="0.25" stop-color="#fbf347"/><stop offset="0.3125" stop-color="#faef2e"/><stop offset="0.375" stop-color="#f8e81c"/><stop offset="0.4375" stop-color="#f1d816"/><stop offset="0.5" stop-color="#f0c122"/><stop offset="0.5625" stop-color="#f8a932"/><stop offset="0.625" stop-color="#f89627"/><stop offset="0.6875" stop-color="#f48419"/><stop offset="0.75" stop-color="#eb7609"/><stop offset="0.8125" stop-color="#da6b03"/><stop offset="0.875" stop-color="#c85f00"/><stop offset="0.9375" stop-color="#b45500"/><stop offset="1" stop-color="#a24e01"/></radialGradient><radialGradient cx="263.66667" cy="196.21491" r="10.00344" fx="263.66667" fy="196.21491" gradientUnits="userSpaceOnUse" id="color-8"><stop offset="0" stop-color="#fcfc9e"/><stop offset="0.0625" stop-color="#fafa8f"/><stop offset="0.125" stop-color="#fbfb7a"/><stop offset="0.1875" stop-color="#fcf860"/><stop offset="0.25" stop-color="#fbf347"/><stop offset="0.3125" stop-color="#faef2e"/><stop offset="0.375" stop-color="#f8e81c"/><stop offset="0.4375" stop-color="#f1d816"/><stop offset="0.5" stop-color="#f0c122"/><stop offset="0.5625" stop-color="#f8a932"/><stop offset="0.625" stop-color="#f89627"/><stop offset="0.6875" stop-color="#f48419"/><stop offset="0.75" stop-color="#eb7609"/><stop offset="0.8125" stop-color="#da6b03"/><stop offset="0.875" stop-color="#c85f00"/><stop offset="0.9375" stop-color="#b45500"/><stop offset="1" stop-color="#a24e01"/></radialGradient></defs><g transform="translate(-202.46666,-139.13333)"><g data-paper-data="{&quot;isPaintingLayer&quot;:true}" fill-rule="nonzero" stroke="#000000" stroke-linecap="butt" stroke-linejoin="miter" stroke-miterlimit="10" stroke-dasharray="" stroke-dashoffset="0" style="mix-blend-mode: normal"><path d="M204.96667,208.23334c0,-8.78257 0,-47.6554 0,-61.6c0,-3.12661 2.48345,-5 5.2,-5c7.82752,0 46.3726,0 61.8,0c3.96258,0 6.4,2.9192 6.4,6c0,8.12015 0,45.15113 0,60.6c0,4.19609 -2.43742,6.8 -6.4,6.8c-15.4274,0 -53.97249,0 -61.8,0c-2.71655,0 -5.2,-3.36444 -5.2,-6.8z" fill="#022d3a" stroke-width="5"/><path d="M217.99886,210.52738c-0.87387,-0.31825 1.18001,-0.08603 0.35352,-0.43028c-0.3469,-0.16489 -0.6919,-0.37496 -1.07656,-0.19773c-1.01934,0.24169 -2.16959,0.18151 -3.07574,-0.39079c-0.1255,-0.57629 1.19396,-0.00346 1.65885,-0.1322c1.11819,0.01944 -0.08692,-0.19719 -0.411,-0.45656c0.36506,0.05356 1.89973,0.09732 0.83436,-0.19413c-0.88341,-0.19595 -1.79758,-0.13334 -2.68685,-0.18394c-0.52051,-0.23856 -1.15898,-0.33615 -1.50919,-0.8359c0.39199,0.18964 0.759,0.42049 1.19594,0.22951c0.78932,-0.16812 -0.82248,-0.39862 -1.0181,-0.57901c-0.55578,-0.27006 -1.21114,-0.38179 -1.71736,-0.74034c-0.45912,-0.41079 -0.92032,-0.81917 -1.37674,-1.23308c-0.20521,-0.65138 -0.36691,-1.59576 0.34736,-0.73066c0.40824,0.48125 1.28043,0.77555 1.68896,0.85314c-0.69302,-0.72425 -1.30693,-1.52167 -1.67659,-2.47118c-0.29345,-0.65393 -0.6342,-1.30406 -0.8665,-1.97728c0,-0.79966 0,-1.5993 0,-2.39896c0.35108,-0.45161 1.19284,-1.4535 0.69683,-0.26926c-0.22897,0.91 0.33603,-0.68915 0.29818,0.39713c0.32064,0.57456 0.28742,-1.20038 0.38254,-0.04884c0.04866,0.4065 0.18366,1.4547 0.18952,0.47429c0.05952,-1.0854 0.076,-2.1929 0.21377,-3.2643c0.18372,-0.38915 0.51448,-0.92994 0.34549,-0.11086c-0.02331,0.40645 -0.07599,1.91826 0.1872,1.64669c0.05674,-1.0123 0.1149,-2.11921 0.77895,-2.94028c0.90234,-0.98005 1.86821,-2.0303 3.19617,-2.3604c0.44296,-0.18657 1.10169,-0.32028 0.39592,0.16504c-0.6199,0.30234 -1.0679,1.10851 -0.02273,0.90857c0.79548,-0.64052 1.55338,-1.37144 2.40233,-1.92379c0.72068,-0.06733 1.46311,-0.39405 2.1725,-0.15693c-0.45469,0.13618 -1.61587,0.08973 -1.58196,0.52661c0.64957,-0.14002 2.31939,-0.57924 2.41553,-0.01667c-1.506,0.59579 -2.76955,1.64478 -4.09555,2.55767c-0.29889,0.65025 0.73314,-0.5844 1.05029,-0.65191c0.77179,-0.51063 1.64678,-0.8757 2.58083,-0.84589c0.50009,-0.04394 1.75065,-0.12931 0.62807,0.18161c-0.36685,0.03789 -1.72419,0.70906 -1.16393,0.85591c0.3675,-0.03654 1.89974,-0.587 0.93797,-0.00605c-1.02622,0.56578 1.25092,0.11313 1.56761,0.01814c-0.30746,-0.43147 -1.50798,-0.27635 -0.59836,-0.66661c0.42197,-0.28453 0.97579,-0.14081 1.45836,-0.2285c0.49533,-0.10847 0.90709,0.30334 1.33571,0.48702c0.36459,0.24756 1.16492,0.93118 0.23805,0.5644c-0.34612,-0.17788 -1.30175,-0.2488 -0.48367,0.07527c0.81347,0.07021 1.49972,0.80415 2.15923,1.276c0.61007,0.55193 -0.81838,-0.25855 -0.21284,0.43871c0.5002,0.84737 1.43348,1.45459 1.46067,2.52659c0.31992,1.28009 -0.36535,-0.2127 -0.62648,-0.67552c-0.20805,-0.39306 -0.37447,-0.82289 -0.78868,-1.03388c-0.54981,-0.39624 -1.05375,-0.87303 -1.64611,-1.19698c0.23231,0.66251 0.94059,1.26233 1.37509,1.88971c0.84968,1.08743 1.93435,2.00381 2.47542,3.31215c0.24824,0.3496 0.51569,1.17879 -0.05263,0.48036c-0.3715,-0.30046 -1.29393,-1.74959 -0.95169,-0.48872c0.14636,1.01869 0.19724,2.04896 0.44908,3.04869c0.04871,1.03725 0.11225,2.3946 -0.90645,2.97961c-0.25279,0.34483 -1.58845,0.56051 -0.85968,-0.03132c0.51223,-0.54518 0.94153,-1.15576 1.01041,-1.93331c0.1331,-0.49442 0.27726,-0.98809 0.14445,-1.50006c-0.00074,-0.48242 -0.22995,-1.40304 -0.2142,-0.35854c0.0268,0.89246 -0.10352,1.80173 -0.50297,2.60441c0.06913,-0.40405 0.22791,-2.29239 -0.07801,-0.99762c-0.20439,0.93267 -0.27166,1.95595 -1.05375,2.60374c-0.7644,0.82019 -1.29777,1.99655 -2.37287,2.43433c-0.72587,0.15687 0.63742,-0.6557 0.72821,-1.03304c0.47693,-0.44002 0.14709,-1.04325 -0.32453,-0.43914c-0.65147,0.71535 -1.04371,1.70075 -1.78554,2.30365c0.21873,-0.45519 0.56731,-1.11369 -0.10754,-0.4727c-0.88476,0.73326 -2.08176,0.97915 -3.19767,0.89386l-0.14415,-0.04629l-0.16673,-0.08335zM212.17128,195.47073c0.47178,-0.22887 0.58738,-1.22675 0.02158,-0.43954c-0.28595,0.36856 -1.09393,1.51059 -0.21627,0.61667l0.09216,-0.08375zM223.64815,195.58471c-0.30748,-0.561 -1.65072,-0.61152 -1.71413,-0.16304c0.4341,-0.22051 0.83205,-0.07193 1.21774,0.15355c0.21756,0.09385 0.99473,0.52507 0.4964,0.00949zM214.28959,193.49501c-0.45509,0.06284 -1.1867,1.09771 -0.31193,0.52581l0.10782,-0.06502l0.11353,-0.06969c0.42129,-0.1207 0.75603,-0.63435 0.09058,-0.39109z" fill="url(#color-1)" stroke-width="0.5"/><path d="M263.3322,191.19405c-0.87387,-0.31825 1.18001,-0.08603 0.35352,-0.43028c-0.3469,-0.16489 -0.69191,-0.37496 -1.07656,-0.19773c-1.01934,0.24169 -2.16959,0.18151 -3.07574,-0.39079c-0.1255,-0.57629 1.19396,-0.00346 1.65886,-0.1322c1.11819,0.01944 -0.08692,-0.19719 -0.411,-0.45656c0.36505,0.05356 1.89973,0.09733 0.83436,-0.19412c-0.8834,-0.19595 -1.79758,-0.13334 -2.68685,-0.18395c-0.52051,-0.23856 -1.15897,-0.33615 -1.50919,-0.8359c0.39198,0.18964 0.759,0.4205 1.19594,0.22951c0.78933,-0.16812 -0.82248,-0.39863 -1.0181,-0.57901c-0.55577,-0.27006 -1.21114,-0.38179 -1.71736,-0.74034c-0.45912,-0.41079 -0.92032,-0.81917 -1.37674,-1.23308c-0.20521,-0.65138 -0.36691,-1.59575 0.34736,-0.73065c0.40824,0.48125 1.28043,0.77555 1.68896,0.85313c-0.69302,-0.72425 -1.30693,-1.52167 -1.67659,-2.47118c-0.29345,-0.65393 -0.6342,-1.30406 -0.8665,-1.97727c0,-0.79966 0,-1.5993 0,-2.39896c0.35108,-0.45161 1.19284,-1.45351 0.69682,-0.26927c-0.22897,0.91 0.33604,-0.68915 0.29818,0.39713c0.32064,0.57456 0.28742,-1.20038 0.38254,-0.04884c0.04866,0.4065 0.18366,1.4547 0.18952,0.47429c0.05952,-1.0854 0.076,-2.1929 0.21377,-3.2643c0.18372,-0.38915 0.51448,-0.92994 0.34549,-0.11086c-0.02332,0.40645 -0.07599,1.91826 0.18719,1.64669c0.05674,-1.0123 0.11491,-2.11921 0.77895,-2.94028c0.90234,-0.98005 1.86821,-2.0303 3.19617,-2.3604c0.44296,-0.18657 1.10169,-0.32028 0.39593,0.16504c-0.61991,0.30234 -1.0679,1.10851 -0.02274,0.90857c0.79548,-0.64052 1.55338,-1.37144 2.40233,-1.92379c0.72068,-0.06733 1.46311,-0.39406 2.1725,-0.15693c-0.4547,0.13618 -1.61587,0.08973 -1.58196,0.52661c0.64958,-0.14002 2.31939,-0.57924 2.41553,-0.01667c-1.50601,0.59579 -2.76955,1.64478 -4.09555,2.55768c-0.2989,0.65025 0.73313,-0.5844 1.05028,-0.65191c0.77179,-0.51063 1.64678,-0.8757 2.58083,-0.84589c0.50009,-0.04394 1.75065,-0.12931 0.62807,0.18161c-0.36685,0.03789 -1.72419,0.70906 -1.16393,0.85591c0.3675,-0.03654 1.89974,-0.587 0.93798,-0.00605c-1.02622,0.56578 1.25092,0.11313 1.5676,0.01814c-0.30746,-0.43147 -1.50798,-0.27635 -0.59836,-0.66661c0.42197,-0.28453 0.97578,-0.14081 1.45835,-0.2285c0.49533,-0.10847 0.9071,0.30334 1.33571,0.48702c0.36459,0.24756 1.16492,0.93119 0.23805,0.56441c-0.34612,-0.17788 -1.30175,-0.2488 -0.48367,0.07527c0.81347,0.07021 1.49972,0.80415 2.15924,1.276c0.61007,0.55193 -0.81838,-0.25856 -0.21283,0.4387c0.5002,0.84737 1.43347,1.45459 1.46066,2.52659c0.31991,1.28009 -0.36535,-0.2127 -0.62648,-0.67552c-0.20805,-0.39306 -0.37447,-0.82289 -0.78868,-1.03388c-0.54981,-0.39624 -1.05375,-0.87303 -1.64611,-1.19698c0.23231,0.66251 0.9406,1.26233 1.3751,1.88971c0.84969,1.08743 1.93435,2.00381 2.47542,3.31215c0.24824,0.3496 0.51568,1.17879 -0.05263,0.48036c-0.37149,-0.30046 -1.29393,-1.74959 -0.95168,-0.48872c0.14636,1.01869 0.19723,2.04896 0.44907,3.04869c0.04871,1.03725 0.11225,2.3946 -0.90645,2.97961c-0.25279,0.34483 -1.58845,0.56051 -0.85967,-0.03132c0.51223,-0.54518 0.94153,-1.15576 1.0104,-1.93331c0.1331,-0.49442 0.27726,-0.9881 0.14445,-1.50007c-0.00074,-0.48242 -0.22996,-1.40304 -0.2142,-0.35854c0.02681,0.89246 -0.10352,1.80173 -0.50297,2.60441c0.06914,-0.40405 0.22791,-2.29239 -0.07801,-0.99762c-0.20439,0.93267 -0.27166,1.95595 -1.05375,2.60374c-0.7644,0.82019 -1.29777,1.99655 -2.37287,2.43433c-0.72587,0.15687 0.63743,-0.6557 0.72821,-1.03304c0.47694,-0.44002 0.14708,-1.04325 -0.32454,-0.43914c-0.65147,0.71535 -1.04371,1.70075 -1.78555,2.30365c0.21873,-0.45519 0.56731,-1.11369 -0.10754,-0.4727c-0.88475,0.73326 -2.08177,0.97915 -3.19767,0.89386l-0.14414,-0.04629l-0.16673,-0.08335zM257.50462,176.1374c0.47178,-0.22887 0.58738,-1.22675 0.02157,-0.43954c-0.28595,0.36856 -1.09392,1.51059 -0.21626,0.61667l0.09216,-0.08375zM268.98148,176.25138c-0.30748,-0.561 -1.65073,-0.61152 -1.71413,-0.16304c0.4341,-0.22051 0.83205,-0.07193 1.21774,0.15355c0.21756,0.09385 0.99473,0.52507 0.4964,0.00948zM259.62293,174.16167c-0.4551,0.06284 -1.1867,1.09771 -0.31193,0.52581l0.10782,-0.06502l0.11353,-0.06969c0.42129,-0.1207 0.75603,-0.63435 0.09058,-0.39109z" fill="url(#color-2)" stroke-width="0.5"/><path d="M221.99886,168.52738c-0.87387,-0.31825 1.18001,-0.08603 0.35352,-0.43028c-0.3469,-0.16489 -0.6919,-0.37496 -1.07656,-0.19773c-1.01934,0.24169 -2.16959,0.18151 -3.07574,-0.39079c-0.1255,-0.57629 1.19396,-0.00346 1.65885,-0.1322c1.11819,0.01944 -0.08692,-0.19719 -0.411,-0.45656c0.36506,0.05356 1.89973,0.09732 0.83436,-0.19413c-0.88341,-0.19595 -1.79758,-0.13334 -2.68685,-0.18394c-0.52051,-0.23856 -1.15898,-0.33615 -1.50919,-0.8359c0.39199,0.18964 0.759,0.42049 1.19594,0.22951c0.78932,-0.16812 -0.82248,-0.39862 -1.0181,-0.57901c-0.55578,-0.27006 -1.21114,-0.38179 -1.71736,-0.74034c-0.45912,-0.41079 -0.92032,-0.81917 -1.37674,-1.23308c-0.20521,-0.65138 -0.36691,-1.59576 0.34736,-0.73066c0.40824,0.48125 1.28043,0.77555 1.68896,0.85314c-0.69302,-0.72425 -1.30693,-1.52167 -1.67659,-2.47118c-0.29345,-0.65393 -0.6342,-1.30406 -0.8665,-1.97728c0,-0.79966 0,-1.5993 0,-2.39896c0.35108,-0.45161 1.19284,-1.4535 0.69683,-0.26926c-0.22897,0.91 0.33603,-0.68915 0.29818,0.39713c0.32064,0.57456 0.28742,-1.20038 0.38254,-0.04884c0.04866,0.4065 0.18366,1.4547 0.18952,0.47429c0.05952,-1.0854 0.076,-2.1929 0.21377,-3.2643c0.18372,-0.38915 0.51448,-0.92994 0.34549,-0.11086c-0.02331,0.40645 -0.07599,1.91826 0.1872,1.64669c0.05674,-1.0123 0.1149,-2.11921 0.77895,-2.94028c0.90234,-0.98005 1.86821,-2.0303 3.19617,-2.3604c0.44296,-0.18657 1.10169,-0.32028 0.39592,0.16504c-0.6199,0.30234 -1.0679,1.10851 -0.02273,0.90857c0.79548,-0.64052 1.55338,-1.37144 2.40233,-1.92379c0.72068,-0.06733 1.46311,-0.39405 2.1725,-0.15693c-0.45469,0.13618 -1.61587,0.08973 -1.58196,0.52661c0.64957,-0.14002 2.31939,-0.57924 2.41553,-0.01667c-1.506,0.59579 -2.76955,1.64478 -4.09555,2.55767c-0.29889,0.65025 0.73314,-0.5844 1.05029,-0.65191c0.77179,-0.51063 1.64678,-0.8757 2.58083,-0.84589c0.50009,-0.04394 1.75065,-0.12931 0.62807,0.18161c-0.36685,0.03789 -1.72419,0.70906 -1.16393,0.85591c0.3675,-0.03654 1.89974,-0.587 0.93797,-0.00605c-1.02622,0.56578 1.25092,0.11313 1.56761,0.01814c-0.30746,-0.43147 -1.50798,-0.27635 -0.59836,-0.66661c0.42197,-0.28453 0.97579,-0.14081 1.45836,-0.2285c0.49533,-0.10847 0.90709,0.30334 1.33571,0.48702c0.36459,0.24756 1.16492,0.93118 0.23805,0.5644c-0.34612,-0.17788 -1.30175,-0.2488 -0.48367,0.07527c0.81347,0.07021 1.49972,0.80415 2.15923,1.276c0.61007,0.55193 -0.81838,-0.25855 -0.21284,0.43871c0.5002,0.84737 1.43348,1.45459 1.46067,2.52659c0.31992,1.28009 -0.36535,-0.2127 -0.62648,-0.67552c-0.20805,-0.39306 -0.37447,-0.82289 -0.78868,-1.03388c-0.54981,-0.39624 -1.05375,-0.87303 -1.64611,-1.19698c0.23231,0.66251 0.94059,1.26233 1.37509,1.88971c0.84968,1.08743 1.93435,2.00381 2.47542,3.31215c0.24824,0.3496 0.51569,1.17879 -0.05263,0.48036c-0.3715,-0.30046 -1.29393,-1.74959 -0.95169,-0.48872c0.14636,1.01869 0.19724,2.04896 0.44908,3.04869c0.04871,1.03725 0.11225,2.3946 -0.90645,2.97961c-0.25279,0.34483 -1.58845,0.56051 -0.85968,-0.03132c0.51223,-0.54518 0.94153,-1.15576 1.01041,-1.93331c0.1331,-0.49442 0.27726,-0.98809 0.14445,-1.50006c-0.00074,-0.48242 -0.22995,-1.40304 -0.2142,-0.35854c0.0268,0.89246 -0.10352,1.80173 -0.50297,2.60441c0.06913,-0.40405 0.22791,-2.29239 -0.07801,-0.99762c-0.20439,0.93267 -0.27166,1.95595 -1.05375,2.60374c-0.7644,0.82019 -1.29777,1.99655 -2.37287,2.43433c-0.72587,0.15687 0.63742,-0.6557 0.72821,-1.03304c0.47693,-0.44002 0.14709,-1.04325 -0.32453,-0.43914c-0.65147,0.71535 -1.04371,1.70075 -1.78554,2.30365c0.21873,-0.45519 0.56731,-1.11369 -0.10754,-0.4727c-0.88476,0.73326 -2.08176,0.97915 -3.19767,0.89386l-0.14415,-0.04629l-0.16673,-0.08335zM216.17128,153.47073c0.47178,-0.22887 0.58738,-1.22675 0.02158,-0.43954c-0.28595,0.36856 -1.09393,1.51059 -0.21627,0.61667l0.09216,-0.08375zM227.64815,153.58471c-0.30748,-0.561 -1.65072,-0.61152 -1.71413,-0.16304c0.4341,-0.22051 0.83205,-0.07193 1.21774,0.15355c0.21756,0.09385 0.99473,0.52507 0.4964,0.00949zM218.28959,151.49501c-0.45509,0.06284 -1.1867,1.09771 -0.31193,0.52581l0.10782,-0.06502l0.11353,-0.06969c0.42129,-0.1207 0.75603,-0.63435 0.09058,-0.39109z" fill="url(#color-3)" stroke-width="0.5"/><path d="M250.12455,184.46533c-1.24574,-0.45369 1.68214,-0.12264 0.50396,-0.61338c-0.49452,-0.23505 -0.98633,-0.53452 -1.53467,-0.28186c-1.4531,0.34455 -3.09283,0.25874 -4.38458,-0.55709c-0.1789,-0.82152 1.70202,-0.00493 2.36475,-0.18846c1.59402,0.02772 -0.12391,-0.2811 -0.5859,-0.65084c0.5204,0.07635 2.70813,0.13874 1.18941,-0.27673c-1.25932,-0.27934 -2.56251,-0.19008 -3.83019,-0.26222c-0.74201,-0.34008 -1.65216,-0.4792 -2.1514,-1.19161c0.55879,0.27034 1.08198,0.59943 1.70485,0.32718c1.12521,-0.23965 -1.17247,-0.56825 -1.45134,-0.8254c-0.79227,-0.38497 -1.72652,-0.54425 -2.44816,-1.05537c-0.65449,-0.5856 -1.31195,-1.16776 -1.96259,-1.75781c-0.29253,-0.92855 -0.52303,-2.2748 0.49518,-1.04157c0.58196,0.68603 1.8253,1.10558 2.40768,1.21617c-0.98792,-1.03244 -1.86308,-2.16919 -2.39005,-3.52275c-0.41833,-0.93221 -0.90407,-1.85899 -1.23522,-2.81868c0,-1.13994 0,-2.27987 0,-3.41979c0.50047,-0.64378 1.70042,-2.07202 0.99335,-0.38385c-0.3264,1.29723 0.47904,-0.98241 0.42507,0.56612c0.45709,0.81905 0.40972,-1.71118 0.54531,-0.06962c0.06937,0.57948 0.26181,2.07372 0.27016,0.67611c0.08485,-1.54728 0.10834,-3.12605 0.30474,-4.65336c0.2619,-0.55474 0.73341,-1.32566 0.49251,-0.15804c-0.03323,0.57942 -0.10833,2.73454 0.26685,2.34742c0.08088,-1.44307 0.1638,-3.02102 1.11043,-4.19148c1.28632,-1.3971 2.66319,-2.89427 4.55624,-3.36482c0.63145,-0.26595 1.5705,-0.45656 0.56441,0.23528c-0.88369,0.43099 -1.52233,1.58021 -0.03241,1.29519c1.13398,-0.91309 2.2144,-1.95504 3.42461,-2.74243c1.02736,-0.09598 2.08571,-0.56174 3.09697,-0.22371c-0.64819,0.19412 -2.30348,0.12791 -2.25514,0.7507c0.92599,-0.19959 3.30638,-0.82573 3.44343,-0.02377c-2.14686,0.84931 -3.94809,2.34469 -5.83835,3.64606c-0.42609,0.92695 1.04511,-0.83308 1.49722,-0.92932c1.10021,-0.72791 2.34753,-1.24833 3.67905,-1.20583c0.71291,-0.06264 2.49563,-0.18435 0.89534,0.25889c-0.52295,0.05402 -2.45789,1.01078 -1.65922,1.22012c0.52389,-0.0521 2.70815,-0.83678 1.33712,-0.00861c-1.46291,0.80653 1.78323,0.16127 2.23467,0.02586c-0.4383,-0.61507 -2.14968,-0.39396 -0.85298,-0.95028c0.60153,-0.40561 1.39101,-0.20072 2.07894,-0.32573c0.70611,-0.15464 1.2931,0.43242 1.9041,0.69427c0.51974,0.3529 1.66063,1.32743 0.33935,0.80457c-0.4934,-0.25357 -1.85569,-0.35467 -0.68949,0.10729c1.15962,0.1001 2.1379,1.14635 3.07806,1.81899c0.86967,0.7868 -1.16663,-0.36858 -0.3034,0.62539c0.71306,1.20796 2.04347,2.07356 2.08223,3.60174c0.45605,1.8248 -0.52082,-0.30321 -0.89307,-0.96298c-0.29658,-0.56032 -0.53382,-1.17305 -1.12429,-1.47383c-0.78377,-0.56486 -1.50216,-1.24454 -2.34658,-1.70633c0.33116,0.94443 1.34085,1.79949 1.96024,2.69386c1.21125,1.55017 2.75748,2.8565 3.5288,4.72158c0.35388,0.49837 0.73513,1.6804 -0.07502,0.68477c-0.52958,-0.42831 -1.84454,-2.49411 -1.35666,-0.6967c0.20864,1.45217 0.28117,2.92087 0.64017,4.34602c0.06944,1.47865 0.16001,3.41359 -1.29218,4.24753c-0.36036,0.49157 -2.26439,0.79904 -1.2255,-0.04464c0.73019,-0.77717 1.34219,-1.64757 1.44037,-2.756c0.18974,-0.7048 0.39524,-1.40857 0.20591,-2.1384c-0.00106,-0.6877 -0.32781,-2.00009 -0.30535,-0.51111c0.03821,1.27224 -0.14757,2.56843 -0.717,3.71268c0.09855,-0.57599 0.3249,-3.26788 -0.1112,-1.42214c-0.29136,1.32956 -0.38727,2.78828 -1.50217,3.71172c-1.08968,1.1692 -1.85001,2.84615 -3.3826,3.47021c-1.03476,0.22361 0.90867,-0.93471 1.03808,-1.47263c0.67989,-0.62727 0.20968,-1.48718 -0.46263,-0.62601c-0.9287,1.01977 -1.48784,2.42447 -2.54536,3.28393c0.3118,-0.64888 0.80872,-1.58759 -0.1533,-0.67385c-1.26125,1.0453 -2.96762,1.39582 -4.55838,1.27422l-0.20549,-0.06599l-0.23768,-0.11881zM241.81713,163.00156c0.67254,-0.32626 0.83733,-1.74878 0.03075,-0.62658c-0.40763,0.5254 -1.55943,2.1534 -0.30829,0.87908l0.13138,-0.11939zM258.1778,163.16404c-0.43833,-0.79973 -2.35316,-0.87174 -2.44356,-0.23241c0.61881,-0.31435 1.18612,-0.10254 1.73593,0.21889c0.31013,0.13379 1.41803,0.7485 0.70763,0.01352zM244.83685,160.18509c-0.64875,0.08957 -1.69167,1.56482 -0.44466,0.74956l0.1537,-0.09269l0.16184,-0.09935c0.60055,-0.17207 1.07774,-0.90429 0.12912,-0.55752z" fill="url(#color-4)" stroke-width="0.5"/><path d="M226.3322,181.19405c-0.87387,-0.31825 1.18001,-0.08603 0.35352,-0.43028c-0.3469,-0.16489 -0.6919,-0.37496 -1.07656,-0.19773c-1.01934,0.24169 -2.1696,0.18151 -3.07575,-0.39079c-0.1255,-0.57629 1.19396,-0.00346 1.65886,-0.1322c1.11819,0.01944 -0.08692,-0.19719 -0.41101,-0.45656c0.36506,0.05356 1.89973,0.09732 0.83437,-0.19413c-0.88341,-0.19595 -1.79759,-0.13334 -2.68685,-0.18394c-0.52051,-0.23856 -1.15897,-0.33615 -1.50919,-0.8359c0.39199,0.18964 0.759,0.42049 1.19594,0.22951c0.78932,-0.16812 -0.82248,-0.39862 -1.01811,-0.57901c-0.55578,-0.27006 -1.21113,-0.38179 -1.71736,-0.74034c-0.45912,-0.41079 -0.92032,-0.81917 -1.37674,-1.23308c-0.20521,-0.65138 -0.36691,-1.59576 0.34736,-0.73066c0.40824,0.48125 1.28043,0.77555 1.68896,0.85314c-0.69302,-0.72425 -1.30693,-1.52167 -1.67659,-2.47118c-0.29345,-0.65393 -0.6342,-1.30406 -0.8665,-1.97728c0,-0.79966 0,-1.5993 0,-2.39896c0.35108,-0.45161 1.19284,-1.4535 0.69682,-0.26926c-0.22897,0.91 0.33604,-0.68915 0.29818,0.39713c0.32064,0.57456 0.28742,-1.20038 0.38254,-0.04884c0.04866,0.4065 0.18366,1.4547 0.18952,0.47429c0.05952,-1.0854 0.076,-2.1929 0.21377,-3.2643c0.18372,-0.38915 0.51448,-0.92994 0.34549,-0.11086c-0.02331,0.40645 -0.07599,1.91826 0.1872,1.64669c0.05674,-1.0123 0.1149,-2.11921 0.77895,-2.94028c0.90234,-0.98005 1.86821,-2.0303 3.19616,-2.3604c0.44296,-0.18657 1.10169,-0.32028 0.39593,0.16504c-0.6199,0.30234 -1.0679,1.10851 -0.02273,0.90857c0.79548,-0.64052 1.55338,-1.37144 2.40233,-1.92379c0.72068,-0.06733 1.4631,-0.39405 2.1725,-0.15693c-0.45469,0.13618 -1.61587,0.08973 -1.58196,0.52661c0.64957,-0.14002 2.31939,-0.57924 2.41553,-0.01667c-1.506,0.59579 -2.76955,1.64478 -4.09555,2.55767c-0.29889,0.65025 0.73314,-0.5844 1.05029,-0.65191c0.77179,-0.51063 1.64678,-0.8757 2.58083,-0.84589c0.50009,-0.04394 1.75065,-0.12931 0.62807,0.18161c-0.36685,0.03789 -1.72419,0.70906 -1.16393,0.85591c0.3675,-0.03654 1.89974,-0.587 0.93797,-0.00605c-1.02622,0.56578 1.25092,0.11313 1.56761,0.01814c-0.30746,-0.43147 -1.50798,-0.27635 -0.59836,-0.66661c0.42197,-0.28453 0.97579,-0.14081 1.45836,-0.2285c0.49533,-0.10847 0.90709,0.30334 1.33571,0.48702c0.36459,0.24756 1.16492,0.93118 0.23805,0.5644c-0.34612,-0.17788 -1.30175,-0.2488 -0.48367,0.07527c0.81347,0.07021 1.49972,0.80415 2.15923,1.276c0.61007,0.55193 -0.81838,-0.25855 -0.21284,0.43871c0.5002,0.84737 1.43348,1.45459 1.46067,2.52659c0.31992,1.28009 -0.36535,-0.2127 -0.62648,-0.67552c-0.20805,-0.39306 -0.37447,-0.82289 -0.78868,-1.03388c-0.54981,-0.39624 -1.05375,-0.87303 -1.6461,-1.19698c0.23231,0.66251 0.94059,1.26233 1.37509,1.88971c0.84968,1.08743 1.93435,2.00381 2.47542,3.31215c0.24824,0.3496 0.51568,1.17879 -0.05263,0.48036c-0.3715,-0.30046 -1.29393,-1.74959 -0.95168,-0.48872c0.14636,1.01869 0.19724,2.04896 0.44907,3.04869c0.04871,1.03725 0.11225,2.3946 -0.90645,2.97961c-0.25279,0.34483 -1.58845,0.56051 -0.85968,-0.03132c0.51223,-0.54518 0.94153,-1.15576 1.0104,-1.93331c0.1331,-0.49442 0.27726,-0.98809 0.14445,-1.50006c-0.00074,-0.48242 -0.22996,-1.40304 -0.2142,-0.35854c0.0268,0.89246 -0.10352,1.80173 -0.50297,2.60441c0.06913,-0.40405 0.22791,-2.29239 -0.07801,-0.99762c-0.20439,0.93267 -0.27166,1.95595 -1.05375,2.60374c-0.7644,0.82019 -1.29777,1.99655 -2.37287,2.43433c-0.72587,0.15687 0.63742,-0.6557 0.72821,-1.03304c0.47693,-0.44002 0.14709,-1.04325 -0.32453,-0.43914c-0.65147,0.71535 -1.04371,1.70075 -1.78555,2.30365c0.21873,-0.45519 0.56731,-1.11369 -0.10754,-0.4727c-0.88476,0.73326 -2.08176,0.97915 -3.19767,0.89386l-0.14415,-0.04629l-0.16673,-0.08335zM220.50462,166.1374c0.47178,-0.22887 0.58738,-1.22675 0.02158,-0.43954c-0.28595,0.36856 -1.09393,1.51059 -0.21627,0.61667l0.09216,-0.08375zM231.98148,166.25138c-0.30748,-0.561 -1.65072,-0.61152 -1.71413,-0.16304c0.4341,-0.22051 0.83205,-0.07193 1.21774,0.15355c0.21756,0.09385 0.99473,0.52507 0.4964,0.00949zM222.62293,164.16167c-0.45509,0.06284 -1.1867,1.09771 -0.31193,0.52581l0.10782,-0.06502l0.11353,-0.06969c0.42129,-0.1207 0.75603,-0.63435 0.09058,-0.39109z" fill="url(#color-5)" stroke-width="0.5"/><path d="M261.3322,166.19404c-0.87387,-0.31825 1.18001,-0.08603 0.35352,-0.43028c-0.3469,-0.16489 -0.69191,-0.37496 -1.07656,-0.19773c-1.01934,0.24169 -2.16959,0.18151 -3.07574,-0.39079c-0.1255,-0.57629 1.19396,-0.00346 1.65886,-0.1322c1.11819,0.01944 -0.08692,-0.19719 -0.411,-0.45656c0.36505,0.05356 1.89973,0.09733 0.83436,-0.19412c-0.8834,-0.19595 -1.79758,-0.13334 -2.68685,-0.18395c-0.52051,-0.23856 -1.15898,-0.33615 -1.50919,-0.8359c0.39199,0.18964 0.759,0.4205 1.19594,0.22951c0.78933,-0.16812 -0.82248,-0.39863 -1.0181,-0.57901c-0.55578,-0.27006 -1.21113,-0.38179 -1.71736,-0.74034c-0.45912,-0.41079 -0.92032,-0.81917 -1.37674,-1.23308c-0.20521,-0.65138 -0.36691,-1.59575 0.34736,-0.73065c0.40824,0.48125 1.28043,0.77555 1.68896,0.85313c-0.69302,-0.72425 -1.30693,-1.52167 -1.67659,-2.47118c-0.29345,-0.65393 -0.6342,-1.30406 -0.8665,-1.97727c0,-0.79966 0,-1.5993 0,-2.39896c0.35108,-0.45161 1.19284,-1.45351 0.69682,-0.26927c-0.22897,0.91 0.33604,-0.68915 0.29818,0.39713c0.32064,0.57456 0.28742,-1.20038 0.38254,-0.04884c0.04866,0.4065 0.18366,1.4547 0.18952,0.47429c0.05952,-1.0854 0.076,-2.1929 0.21377,-3.2643c0.18372,-0.38915 0.51448,-0.92994 0.34549,-0.11086c-0.02331,0.40645 -0.07599,1.91826 0.1872,1.64669c0.05674,-1.0123 0.1149,-2.11921 0.77895,-2.94028c0.90234,-0.98005 1.86821,-2.0303 3.19616,-2.3604c0.44296,-0.18657 1.10169,-0.32028 0.39593,0.16504c-0.61991,0.30234 -1.0679,1.10851 -0.02274,0.90857c0.79548,-0.64052 1.55338,-1.37144 2.40233,-1.92379c0.72068,-0.06733 1.46311,-0.39406 2.1725,-0.15693c-0.4547,0.13618 -1.61587,0.08973 -1.58196,0.52661c0.64958,-0.14002 2.31939,-0.57924 2.41553,-0.01667c-1.50601,0.59579 -2.76955,1.64478 -4.09555,2.55768c-0.2989,0.65025 0.73313,-0.5844 1.05028,-0.65191c0.77179,-0.51063 1.64678,-0.8757 2.58083,-0.84589c0.50009,-0.04394 1.75065,-0.12931 0.62807,0.18161c-0.36685,0.03789 -1.72419,0.70906 -1.16393,0.85591c0.3675,-0.03654 1.89974,-0.587 0.93798,-0.00605c-1.02622,0.56578 1.25092,0.11313 1.5676,0.01814c-0.30746,-0.43147 -1.50798,-0.27635 -0.59836,-0.66661c0.42197,-0.28453 0.97578,-0.14081 1.45835,-0.2285c0.49533,-0.10847 0.9071,0.30334 1.33571,0.48702c0.36459,0.24756 1.16492,0.93119 0.23805,0.56441c-0.34612,-0.17788 -1.30175,-0.2488 -0.48367,0.07527c0.81347,0.07021 1.49972,0.80415 2.15924,1.276c0.61007,0.55193 -0.81838,-0.25856 -0.21283,0.4387c0.5002,0.84737 1.43347,1.45459 1.46066,2.52659c0.31991,1.28009 -0.36535,-0.2127 -0.62648,-0.67552c-0.20805,-0.39306 -0.37447,-0.82289 -0.78868,-1.03388c-0.54981,-0.39624 -1.05375,-0.87303 -1.64611,-1.19698c0.23231,0.66251 0.9406,1.26233 1.3751,1.88971c0.84969,1.08743 1.93435,2.00381 2.47542,3.31215c0.24824,0.3496 0.51568,1.17879 -0.05263,0.48036c-0.37149,-0.30046 -1.29393,-1.74959 -0.95168,-0.48872c0.14636,1.01869 0.19723,2.04896 0.44907,3.04869c0.04871,1.03725 0.11225,2.3946 -0.90645,2.97961c-0.25279,0.34483 -1.58845,0.56051 -0.85967,-0.03132c0.51223,-0.54518 0.94153,-1.15576 1.0104,-1.93331c0.1331,-0.49442 0.27726,-0.9881 0.14445,-1.50007c-0.00074,-0.48242 -0.22996,-1.40304 -0.2142,-0.35854c0.02681,0.89246 -0.10352,1.80173 -0.50297,2.60441c0.06914,-0.40405 0.22791,-2.29239 -0.07801,-0.99762c-0.20439,0.93267 -0.27166,1.95595 -1.05375,2.60374c-0.7644,0.82019 -1.29777,1.99655 -2.37287,2.43433c-0.72587,0.15687 0.63743,-0.6557 0.72821,-1.03304c0.47694,-0.44002 0.14708,-1.04325 -0.32454,-0.43914c-0.65147,0.71535 -1.04371,1.70075 -1.78555,2.30365c0.21873,-0.45519 0.56731,-1.11369 -0.10754,-0.4727c-0.88475,0.73326 -2.08177,0.97915 -3.19767,0.89386l-0.14414,-0.04629l-0.16673,-0.08335zM255.50462,151.1374c0.47178,-0.22887 0.58738,-1.22675 0.02158,-0.43954c-0.28595,0.36856 -1.09393,1.51059 -0.21627,0.61667l0.09216,-0.08375zM266.98148,151.25138c-0.30748,-0.561 -1.65073,-0.61152 -1.71413,-0.16304c0.4341,-0.22051 0.83205,-0.07193 1.21774,0.15355c0.21756,0.09385 0.99473,0.52507 0.4964,0.00948zM257.62293,149.16167c-0.4551,0.06284 -1.1867,1.09771 -0.31193,0.52581l0.10782,-0.06502l0.11353,-0.06969c0.42129,-0.1207 0.75603,-0.63435 0.09058,-0.39109z" fill="url(#color-6)" stroke-width="0.5"/><path d="M235.45788,208.46533c-1.24574,-0.45369 1.68215,-0.12264 0.50396,-0.61338c-0.49452,-0.23505 -0.98633,-0.53452 -1.53467,-0.28186c-1.4531,0.34455 -3.09283,0.25874 -4.38458,-0.55709c-0.1789,-0.82152 1.70203,-0.00493 2.36475,-0.18846c1.59402,0.02772 -0.12391,-0.2811 -0.5859,-0.65084c0.5204,0.07635 2.70813,0.13874 1.18941,-0.27673c-1.25932,-0.27934 -2.56251,-0.19008 -3.8302,-0.26222c-0.74201,-0.34008 -1.65215,-0.4792 -2.1514,-1.19161c0.55879,0.27034 1.08197,0.59943 1.70485,0.32718c1.12521,-0.23965 -1.17247,-0.56825 -1.45134,-0.8254c-0.79227,-0.38497 -1.72652,-0.54425 -2.44816,-1.05537c-0.65449,-0.5856 -1.31195,-1.16776 -1.96259,-1.75781c-0.29253,-0.92855 -0.52303,-2.2748 0.49518,-1.04157c0.58196,0.68603 1.8253,1.10558 2.40768,1.21617c-0.98792,-1.03244 -1.86308,-2.16919 -2.39005,-3.52275c-0.41833,-0.93221 -0.90407,-1.85899 -1.23522,-2.81868c0,-1.13994 0,-2.27987 0,-3.41979c0.50047,-0.64378 1.70042,-2.07202 0.99335,-0.38385c-0.3264,1.29723 0.47903,-0.98241 0.42507,0.56612c0.45709,0.81905 0.40972,-1.71118 0.54532,-0.06962c0.06937,0.57948 0.26181,2.07372 0.27016,0.67611c0.08485,-1.54728 0.10834,-3.12605 0.30474,-4.65336c0.2619,-0.55474 0.73341,-1.32566 0.49251,-0.15804c-0.03323,0.57942 -0.10833,2.73454 0.26685,2.34742c0.08088,-1.44307 0.1638,-3.02102 1.11043,-4.19148c1.28632,-1.3971 2.6632,-2.89427 4.55624,-3.36482c0.63145,-0.26595 1.5705,-0.45656 0.56441,0.23528c-0.88369,0.43099 -1.52233,1.58021 -0.03241,1.29519c1.13398,-0.91309 2.2144,-1.95504 3.42461,-2.74243c1.02736,-0.09598 2.08571,-0.56174 3.09698,-0.22371c-0.64819,0.19412 -2.30348,0.12791 -2.25514,0.7507c0.92599,-0.19959 3.30638,-0.82573 3.44343,-0.02377c-2.14686,0.84931 -3.94809,2.34469 -5.83835,3.64606c-0.42609,0.92695 1.04511,-0.83308 1.49722,-0.92932c1.10021,-0.72791 2.34754,-1.24833 3.67905,-1.20583c0.71291,-0.06264 2.49563,-0.18435 0.89534,0.25889c-0.52295,0.05402 -2.45789,1.01078 -1.65922,1.22012c0.52389,-0.0521 2.70815,-0.83678 1.33712,-0.00861c-1.46291,0.80653 1.78323,0.16127 2.23467,0.02586c-0.4383,-0.61507 -2.14968,-0.39396 -0.85298,-0.95028c0.60153,-0.40561 1.39102,-0.20072 2.07894,-0.32573c0.70611,-0.15464 1.29309,0.43242 1.9041,0.69427c0.51973,0.3529 1.66063,1.32743 0.33935,0.80457c-0.4934,-0.25357 -1.85569,-0.35467 -0.68949,0.10729c1.15962,0.1001 2.13791,1.14635 3.07807,1.81899c0.86968,0.7868 -1.16663,-0.36858 -0.3034,0.62539c0.71306,1.20796 2.04347,2.07356 2.08223,3.60174c0.45605,1.8248 -0.52082,-0.30321 -0.89307,-0.96298c-0.29658,-0.56032 -0.53382,-1.17305 -1.12429,-1.47383c-0.78377,-0.56486 -1.50216,-1.24454 -2.34658,-1.70633c0.33116,0.94443 1.34085,1.79949 1.96025,2.69386c1.21125,1.55017 2.75748,2.8565 3.5288,4.72158c0.35388,0.49837 0.73512,1.6804 -0.07503,0.68477c-0.52958,-0.42831 -1.84454,-2.49411 -1.35666,-0.6967c0.20864,1.45217 0.28117,2.92087 0.64017,4.34602c0.06944,1.47865 0.16001,3.41359 -1.29218,4.24753c-0.36036,0.49157 -2.26439,0.79904 -1.22549,-0.04464c0.7302,-0.77717 1.34219,-1.64757 1.44037,-2.756c0.18974,-0.7048 0.39525,-1.40857 0.20592,-2.1384c-0.00106,-0.6877 -0.32781,-2.00009 -0.30535,-0.51111c0.03821,1.27224 -0.14757,2.56843 -0.717,3.71268c0.09856,-0.57599 0.3249,-3.26788 -0.1112,-1.42214c-0.29136,1.32956 -0.38727,2.78828 -1.50216,3.71172c-1.08968,1.1692 -1.85002,2.84615 -3.38261,3.47021c-1.03475,0.22361 0.90867,-0.93471 1.03808,-1.47263c0.67989,-0.62727 0.20968,-1.48718 -0.46264,-0.62601c-0.9287,1.01977 -1.48784,2.42447 -2.54536,3.28393c0.3118,-0.64888 0.80872,-1.58759 -0.1533,-0.67385c-1.26125,1.0453 -2.96762,1.39582 -4.55838,1.27422l-0.20548,-0.06599l-0.23768,-0.11881zM227.15047,187.00156c0.67254,-0.32626 0.83733,-1.74878 0.03075,-0.62658c-0.40763,0.5254 -1.55943,2.1534 -0.30829,0.87908l0.13138,-0.11939zM243.51113,187.16404c-0.43832,-0.79973 -2.35317,-0.87174 -2.44356,-0.23241c0.61882,-0.31435 1.18612,-0.10254 1.73593,0.21889c0.31013,0.13379 1.41803,0.7485 0.70764,0.01352zM230.17019,184.1851c-0.64875,0.08957 -1.69167,1.56482 -0.44466,0.74956l0.1537,-0.09269l0.16184,-0.09935c0.60055,-0.17207 1.07775,-0.90429 0.12913,-0.55752z" fill="url(#color-7)" stroke-width="0.5"/><path d="M262.99886,205.86072c-0.87387,-0.31825 1.18001,-0.08603 0.35353,-0.43028c-0.3469,-0.16489 -0.69191,-0.37496 -1.07656,-0.19772c-1.01934,0.24169 -2.16959,0.1815 -3.07574,-0.39079c-0.1255,-0.57629 1.19396,-0.00346 1.65885,-0.1322c1.11819,0.01944 -0.08692,-0.19719 -0.411,-0.45655c0.36505,0.05356 1.89973,0.09732 0.83436,-0.19413c-0.8834,-0.19595 -1.79758,-0.13334 -2.68685,-0.18394c-0.52051,-0.23856 -1.15897,-0.33615 -1.50919,-0.8359c0.39198,0.18964 0.759,0.4205 1.19594,0.22951c0.78933,-0.16812 -0.82248,-0.39862 -1.0181,-0.57901c-0.55577,-0.27006 -1.21114,-0.38179 -1.71736,-0.74034c-0.45912,-0.41079 -0.92032,-0.81917 -1.37674,-1.23308c-0.20521,-0.65138 -0.36691,-1.59576 0.34736,-0.73066c0.40824,0.48125 1.28043,0.77555 1.68897,0.85314c-0.69302,-0.72425 -1.30693,-1.52167 -1.6766,-2.47118c-0.29345,-0.65393 -0.6342,-1.30406 -0.8665,-1.97728c0,-0.79966 0,-1.5993 0,-2.39896c0.35108,-0.45161 1.19284,-1.4535 0.69683,-0.26926c-0.22897,0.91 0.33603,-0.68915 0.29818,0.39712c0.32064,0.57456 0.28742,-1.20037 0.38254,-0.04884c0.04866,0.4065 0.18366,1.4547 0.18952,0.47428c0.05952,-1.0854 0.076,-2.1929 0.21377,-3.26429c0.18372,-0.38915 0.51448,-0.92994 0.34549,-0.11086c-0.02331,0.40645 -0.07599,1.91826 0.1872,1.64669c0.05674,-1.0123 0.11491,-2.11921 0.77895,-2.94028c0.90234,-0.98005 1.86821,-2.0303 3.19617,-2.3604c0.44296,-0.18657 1.10169,-0.32028 0.39592,0.16504c-0.61991,0.30234 -1.0679,1.1085 -0.02274,0.90856c0.79548,-0.64052 1.55339,-1.37144 2.40234,-1.92379c0.72068,-0.06733 1.4631,-0.39405 2.1725,-0.15693c-0.4547,0.13618 -1.61587,0.08973 -1.58196,0.52661c0.64958,-0.14002 2.31939,-0.57924 2.41553,-0.01667c-1.50601,0.59579 -2.76955,1.64478 -4.09555,2.55767c-0.2989,0.65025 0.73314,-0.5844 1.05029,-0.65191c0.77179,-0.51063 1.64678,-0.8757 2.58083,-0.84589c0.50009,-0.04394 1.75065,-0.12931 0.62807,0.18161c-0.36685,0.03789 -1.72419,0.70906 -1.16393,0.85591c0.3675,-0.03654 1.89974,-0.587 0.93797,-0.00605c-1.02622,0.56578 1.25092,0.11313 1.56761,0.01814c-0.30746,-0.43147 -1.50798,-0.27635 -0.59836,-0.66661c0.42197,-0.28453 0.97578,-0.14081 1.45835,-0.2285c0.49533,-0.10847 0.9071,0.30334 1.33571,0.48702c0.36459,0.24756 1.16492,0.93118 0.23805,0.5644c-0.34612,-0.17788 -1.30175,-0.2488 -0.48367,0.07527c0.81347,0.07021 1.49972,0.80415 2.15923,1.276c0.61007,0.55193 -0.81838,-0.25856 -0.21283,0.4387c0.5002,0.84737 1.43347,1.45459 1.46067,2.52659c0.31991,1.28009 -0.36535,-0.2127 -0.62648,-0.67552c-0.20805,-0.39306 -0.37447,-0.82289 -0.78868,-1.03388c-0.54981,-0.39624 -1.05375,-0.87303 -1.6461,-1.19698c0.23231,0.66251 0.94059,1.26233 1.37509,1.88971c0.84969,1.08743 1.93435,2.00381 2.47542,3.31214c0.24824,0.3496 0.51569,1.17879 -0.05263,0.48036c-0.37149,-0.30046 -1.29393,-1.7496 -0.95168,-0.48873c0.14636,1.01869 0.19723,2.04897 0.44907,3.0487c0.04871,1.03725 0.11225,2.3946 -0.90645,2.97961c-0.25279,0.34483 -1.58845,0.56051 -0.85967,-0.03132c0.51223,-0.54518 0.94153,-1.15576 1.0104,-1.93331c0.1331,-0.49442 0.27726,-0.9881 0.14445,-1.50007c-0.00074,-0.48242 -0.22996,-1.40304 -0.2142,-0.35853c0.02681,0.89246 -0.10352,1.80173 -0.50297,2.60441c0.06914,-0.40405 0.22791,-2.29239 -0.07801,-0.99762c-0.20439,0.93267 -0.27167,1.95596 -1.05376,2.60374c-0.7644,0.82019 -1.29777,1.99655 -2.37287,2.43433c-0.72587,0.15687 0.63743,-0.6557 0.72821,-1.03304c0.47694,-0.44002 0.14709,-1.04325 -0.32453,-0.43914c-0.65147,0.71535 -1.04371,1.70075 -1.78555,2.30365c0.21873,-0.45519 0.56731,-1.11369 -0.10754,-0.4727c-0.88475,0.73326 -2.08176,0.97915 -3.19766,0.89386l-0.14414,-0.04629l-0.16673,-0.08335zM257.17128,190.80407c0.47178,-0.22887 0.58738,-1.22675 0.02157,-0.43954c-0.28595,0.36856 -1.09393,1.51059 -0.21627,0.61667l0.09216,-0.08375zM268.64815,190.91805c-0.30748,-0.561 -1.65073,-0.61152 -1.71413,-0.16304c0.4341,-0.22051 0.83205,-0.07193 1.21774,0.15355c0.21756,0.09385 0.99473,0.52507 0.4964,0.00949zM259.28959,188.82834c-0.4551,0.06284 -1.18669,1.09771 -0.31192,0.52581l0.10782,-0.06502l0.11353,-0.0697c0.42129,-0.1207 0.75603,-0.63434 0.09058,-0.39109z" fill="url(#color-8)" stroke-width="0.5"/></g></g></svg>