<svg version="1.1" xmlns="http://www.w3.org/2000/svg" xmlns:xlink="http://www.w3.org/1999/xlink" width="78.4" height="78.4" viewBox="0,0,78.4,78.4"><g transform="translate(-200.8,-140.8)"><g data-paper-data="{&quot;isPaintingLayer&quot;:true}" fill-rule="nonzero" stroke-linecap="butt" stroke-linejoin="miter" stroke-miterlimit="10" stroke-dasharray="" stroke-dashoffset="0" style="mix-blend-mode: normal"><path d="M203.3,209.9c0,-8.78257 0,-47.6554 0,-61.6c0,-3.12661 2.48345,-5 5.2,-5c7.82752,0 46.3726,0 61.8,0c3.96258,0 6.4,2.9192 6.4,6c0,8.12015 0,45.15113 0,60.6c0,4.19609 -2.43742,6.8 -6.4,6.8c-15.4274,0 -53.97249,0 -61.8,0c-2.71655,0 -5.2,-3.36444 -5.2,-6.8z" fill="#022d3a" stroke="#000000" stroke-width="5"/><path d="M258.64189,191.46325l-0.46439,-0.2681l0.68597,2.56228c0.0869,0.32301 -0.10534,0.6558 -0.42905,0.74214c-0.32385,0.08718 -0.6565,-0.10506 -0.74298,-0.42877l-1.00046,-3.73402l-4.60441,-2.65826l0.27062,1.0094l3.34786,1.93247c0.2899,0.16807 0.38965,0.53858 0.22214,0.82932c-0.16807,0.2899 -0.53872,0.38923 -0.82932,0.22214l-2.29655,-1.32682l0.13887,0.51846l2.17458,2.68983l-0.7712,4.89347l-3.11427,-3.8518l0.5383,-3.4173l-0.13887,-0.51846l-1.32584,2.29725c-0.16723,0.2899 -0.53872,0.38923 -0.82862,0.22214c-0.29073,-0.16723 -0.39007,-0.53872 -0.22242,-0.82862l1.93274,-3.34787l-0.58468,-2.18185l-8.9417,-5.16241l2.29263,3.97055l3.73388,1.0013c0.32301,0.08634 0.51511,0.41899 0.42877,0.74283c-0.08634,0.32371 -0.41913,0.51595 -0.74284,0.42877l-2.56228,-0.68639l0.26852,0.46426l2.79685,2.03571l0.52167,4.92673l-4.00492,-2.91518l-0.3645,-3.43993l-0.2681,-0.46426l-0.68639,2.56144c-0.08634,0.32371 -0.41955,0.51595 -0.74326,0.42863c-0.32371,-0.08634 -0.51553,-0.41899 -0.42919,-0.74284l1.00046,-3.73402l-2.29249,-3.97139v10.32566l1.59702,1.5973h3.86591c0.33474,0 0.60648,0.27145 0.60648,0.60648c0,0.3353 -0.27215,0.60732 -0.60648,0.60732h-2.65267l0.37959,0.37875l3.22799,1.24286l1.77934,4.62299l-4.62313,-1.77892l-1.24272,-3.22827l-0.37959,-0.37959v2.65267c0.00042,0.33433 -0.27132,0.60634 -0.60648,0.60634c-0.33516,0 -0.6069,-0.27201 -0.6069,-0.60634v-3.86563l-0.7385,-0.73977v5.31763l2.73342,2.73328c0.23695,0.23681 0.23695,0.62115 0,0.85852c-0.23751,0.23653 -0.62101,0.23653 -0.8581,0l-1.87546,-1.87588v0.53705l1.40436,3.16051l-2.01112,4.52688l-2.0114,-4.52673l1.40464,-3.16051v-0.53704l-1.8756,1.87588c-0.23695,0.23653 -0.62073,0.23653 -0.85796,0c-0.23695,-0.23751 -0.23695,-0.62185 0,-0.85852l2.73356,-2.73328v-5.31763l-0.73865,0.73976v3.86563c0,0.33433 -0.27145,0.60634 -0.60704,0.60634c-0.33488,0 -0.6062,-0.27201 -0.6062,-0.60634v-2.65267l-0.37973,0.37959l-1.24244,3.22827l-4.62285,1.77893l1.77892,-4.623l3.22827,-1.24286l0.37931,-0.37875h-2.65239c-0.33503,0 -0.60648,-0.27216 -0.60648,-0.60732c0,-0.33516 0.27146,-0.60648 0.60662,-0.60648h3.86549l1.59702,-1.5973v-10.32566l-2.29278,3.97139l1.0006,3.73402c0.08662,0.32385 -0.1052,0.6565 -0.42919,0.74283c-0.32357,0.08732 -0.65621,-0.10492 -0.74283,-0.42863l-0.68639,-2.56228l-0.26852,0.46509l-0.36436,3.43994l-4.00492,2.91518l0.52181,-4.92672l2.79643,-2.03571l0.26852,-0.46426l-2.562,0.68639c-0.32343,0.08718 -0.65635,-0.10506 -0.74312,-0.42877c-0.08662,-0.32385 0.10562,-0.6565 0.42919,-0.74283l3.73402,-1.0013l2.29292,-3.97055l-8.94296,5.16311l-0.58455,2.18115l1.93317,3.34786c0.16737,0.29004 0.06818,0.66153 -0.22228,0.82862c-0.29018,0.16709 -0.66097,0.06776 -0.82876,-0.22214l-1.32612,-2.29725l-0.13887,0.51846l0.53844,3.4173l-3.11441,3.8518l-0.77078,-4.89348l2.17444,-2.68983l0.13887,-0.51846l-2.29669,1.32682c-0.29018,0.16709 -0.66139,0.06776 -0.8289,-0.22214c-0.16779,-0.29088 -0.06789,-0.66139 0.22228,-0.82932l3.34744,-1.93246l0.27061,-1.0094l-4.60441,2.65825l-1.0006,3.73402c-0.08676,0.32371 -0.41955,0.51595 -0.74312,0.42961c-0.32371,-0.08718 -0.51567,-0.41983 -0.42905,-0.74283l0.68667,-2.56228l-0.46509,0.2681l-2.03529,2.79643l-4.92589,0.52167l2.9149,-4.0045l3.43965,-0.36408l0.46468,-0.26894l-2.562,-0.68639c-0.32329,-0.08648 -0.51553,-0.41913 -0.42891,-0.74284c0.0869,-0.32385 0.4194,-0.51595 0.74325,-0.42961l3.73416,1.0013l4.60469,-2.65854l-1.00899,-0.27132l-3.34814,1.93316c-0.29018,0.16793 -0.66097,0.0686 -0.82876,-0.22116c-0.16765,-0.29088 -0.06804,-0.66153 0.222,-0.82946l2.29711,-1.32585l-0.5186,-0.13887l-3.4166,0.53788l-3.85208,-3.11385l4.89305,-0.7712l2.68969,2.17458l0.51832,0.13887l-1.32612,-2.29739c-0.16765,-0.28976 -0.06832,-0.66055 0.222,-0.82764c0.29018,-0.16793 0.66125,-0.0686 0.82904,0.22116l1.93274,3.34801l2.18157,0.58468l8.94212,-5.16325l-4.58527,0.00084l-2.73356,2.73272c-0.23681,0.23737 -0.62101,0.23737 -0.85796,0c-0.23723,-0.23667 -0.23723,-0.62101 0,-0.85768l1.8756,-1.87505h-0.53705l-3.16093,1.40352l-4.52673,-2.0107l4.52673,-2.01098l3.16093,1.4038h0.53676l-1.87546,-1.87518c-0.23723,-0.23695 -0.23723,-0.62073 0,-0.85796c0.23695,-0.23695 0.62115,-0.23695 0.85796,0l2.73356,2.73314h4.58527l-8.94254,-5.16241l-2.18115,0.58427l-1.93274,3.34773c-0.16793,0.29018 -0.53886,0.38965 -0.82904,0.22228c-0.29018,-0.16751 -0.38951,-0.53872 -0.222,-0.8289l1.32612,-2.29669l-0.51832,0.13887l-2.68969,2.17444l-4.89305,-0.77078l3.85194,-3.11385l3.41702,0.53802l0.51805,-0.13887l-2.29697,-1.32612c-0.29004,-0.16779 -0.38951,-0.53858 -0.222,-0.82876c0.16779,-0.29046 0.53858,-0.39007 0.82876,-0.22228l3.348,1.93316l1.00913,-0.27075l-4.60442,-2.65826l-3.73416,1.00046c-0.32385,0.08676 -0.65663,-0.10548 -0.74325,-0.42877c-0.08662,-0.32385 0.10562,-0.6565 0.42891,-0.74312l2.562,-0.68681l-0.46468,-0.2681l-3.43965,-0.36436l-2.9149,-4.00506l4.92589,0.52167l2.03529,2.79657l0.46509,0.2681l-0.68667,-2.56158c-0.08648,-0.32385 0.10548,-0.65622 0.42905,-0.74312c0.32371,-0.0869 0.65635,0.1052 0.74312,0.42905l1.0006,3.73416l4.60441,2.65812l-0.27061,-1.00899l-3.34744,-1.9326c-0.29004,-0.16779 -0.39007,-0.53886 -0.22242,-0.8289c0.16779,-0.29046 0.539,-0.39007 0.82917,-0.22228l2.29669,1.32612l-0.13887,-0.51818l-2.17444,-2.68983l0.77078,-4.89333l3.11441,3.85222l-0.53844,3.41688l0.13887,0.51846l1.32612,-2.29697c0.16779,-0.29046 0.53844,-0.38965 0.82876,-0.22228c0.29046,0.16779 0.38965,0.53872 0.22228,0.8289l-1.93316,3.34773l0.58455,2.18143l8.94296,5.16311l-2.29292,-3.97139l-3.73402,-1.0006c-0.32371,-0.08676 -0.51581,-0.41927 -0.42919,-0.74312c0.08676,-0.32385 0.41969,-0.51595 0.74312,-0.42891l2.56199,0.68612l-0.26852,-0.46426l-2.79643,-2.03571l-0.52181,-4.92575l4.00478,2.91448l0.36436,3.43965l0.26852,0.46482l0.68639,-2.562c0.08648,-0.32343 0.41927,-0.51567 0.74283,-0.42863c0.32399,0.08662 0.51581,0.41941 0.42919,0.74298l-1.0006,3.73416l2.29236,3.97055v-10.32539l-1.5966,-1.59688h-3.86549c-0.33516,0 -0.60662,-0.27146 -0.60662,-0.60662c0,-0.33488 0.27159,-0.60676 0.60648,-0.60676h2.65239l-0.37931,-0.37931l-3.22827,-1.24216l-1.77892,-4.62313l4.62285,1.77906l1.24244,3.22827l0.37973,0.37931v-2.65253c0,-0.33488 0.27132,-0.60662 0.6062,-0.60662c0.33558,0 0.60704,0.27174 0.60704,0.60662v3.86605l0.73823,0.73864v-5.31693l-2.73314,-2.73314c-0.23695,-0.23723 -0.23723,-0.62143 0,-0.85796c0.23681,-0.23723 0.62101,-0.23723 0.85796,0l1.87518,1.87518v-0.53705l-1.40422,-3.16079l2.01112,-4.52688l2.0114,4.52688l-1.40478,3.16121v0.53662l1.87574,-1.87518c0.23723,-0.23723 0.62073,-0.23723 0.8581,0c0.23695,0.23653 0.23695,0.62073 0,0.85796l-2.73384,2.73314v5.31679l0.73893,-0.73864v-3.86591c0,-0.33488 0.27174,-0.60662 0.6069,-0.60662c0.33516,0 0.60648,0.27174 0.60648,0.60662v2.65295l0.37959,-0.37931l1.24272,-3.22827l4.62313,-1.77906l-1.77934,4.62313l-3.22799,1.24216l-0.37959,0.37931h2.65267c0.33474,0 0.60648,0.27187 0.60648,0.60676c0,0.33516 -0.27174,0.60662 -0.60648,0.60662h-3.86591l-1.59744,1.59688v10.32623l2.29292,-3.97139l-1.00046,-3.73416c-0.08634,-0.32371 0.10548,-0.65635 0.42961,-0.74298c0.32329,-0.08718 0.6565,0.1052 0.74283,0.42863l0.68639,2.56199l0.2681,-0.46453l0.3645,-3.43979l4.00492,-2.91491l-0.52168,4.92575l-2.79685,2.03571l-0.26852,0.46425l2.56228,-0.68611c0.32371,-0.08704 0.65635,0.10506 0.74283,0.42891c0.08648,0.32385 -0.10562,0.65635 -0.42877,0.74312l-3.73388,1.0006l-2.29264,3.97069l8.9417,-5.16283l0.58468,-2.18101l-1.93274,-3.34759c-0.16765,-0.29046 -0.06832,-0.66139 0.22242,-0.82918c0.29004,-0.16737 0.66153,-0.06818 0.82862,0.22228l1.32584,2.29697l0.13887,-0.51846l-0.5383,-3.41688l3.11427,-3.85222l0.7712,4.89333l-2.17458,2.68983l-0.13887,0.51818l2.29655,-1.32612c0.29073,-0.16779 0.66139,-0.06832 0.82932,0.22186c0.16751,0.29046 0.06776,0.66153 -0.22214,0.82932l-3.34787,1.9326l-0.27062,1.00899l4.60441,-2.65854l1.00046,-3.73374c0.08648,-0.32385 0.41913,-0.51609 0.74298,-0.42905c0.32371,0.08676 0.51595,0.41927 0.42863,0.74269l-0.68625,2.562l0.46509,-0.26852l2.03571,-2.79643l4.92575,-0.52168l-2.91504,4.00492l-3.43951,0.36436l-0.46523,0.26824l2.56269,0.68681c0.32301,0.08662 0.51511,0.41927 0.42877,0.74269c-0.08634,0.32385 -0.41955,0.51609 -0.74326,0.42919l-3.7343,-1.00046l-4.60442,2.65826l1.0094,0.27034l3.34759,-1.93274c0.29046,-0.16779 0.66138,-0.06832 0.82904,0.22186c0.16709,0.29018 0.06818,0.66138 -0.22214,0.8289l-2.29739,1.3264l0.5193,0.13887l3.4166,-0.53802l3.8518,3.11399l-4.89305,0.77078l-2.68941,-2.17444l-0.51888,-0.13887l1.32626,2.29669c0.16751,0.29018 0.06818,0.66125 -0.222,0.82862c-0.29073,0.16779 -0.66153,0.06832 -0.82904,-0.22186l-1.93274,-3.34773l-2.18101,-0.58454l-8.94254,5.16311h4.58499l2.73342,-2.73356c0.23751,-0.23709 0.62115,-0.23709 0.85852,0.00014c0.23737,0.23667 0.23695,0.62087 0,0.85782l-1.87505,1.8756h0.53621l3.16093,-1.40422l4.52729,2.01098l-4.52715,2.0107l-3.16093,-1.40436h-0.53621l1.87505,1.87588c0.23695,0.23681 0.23737,0.62115 0,0.85768c-0.23751,0.23737 -0.62115,0.23737 -0.85852,0l-2.73342,-2.73342l-4.58499,0.00084l8.94254,5.16241l2.18101,-0.58469l1.93274,-3.348c0.16765,-0.28976 0.53914,-0.38909 0.82904,-0.22116c0.29018,0.16709 0.38951,0.53788 0.222,0.82764l-1.32626,2.29739l0.51888,-0.13887l2.68941,-2.17458l4.89305,0.7712l-3.8518,3.11385l-3.4166,-0.53788l-0.5193,0.13887l2.29739,1.32585c0.29032,0.16807 0.39007,0.53872 0.22214,0.82946c-0.16779,0.28976 -0.53872,0.38909 -0.82904,0.22116l-3.34759,-1.93316l-1.0094,0.27061l4.60441,2.65826l3.7343,-1.00046c0.32371,-0.08634 0.65692,0.10576 0.74326,0.42961c0.08648,0.32371 -0.10562,0.65636 -0.42877,0.74284l-2.56228,0.68639l0.46482,0.2681l3.43951,0.36492l2.91504,4.0045l-4.92575,-0.52167z" fill="#00b5ff" stroke="none" stroke-width="1"/></g></g></svg>