<svg version="1.1" xmlns="http://www.w3.org/2000/svg" xmlns:xlink="http://www.w3.org/1999/xlink" width="78.4" height="78.4" viewBox="0,0,78.4,78.4"><g transform="translate(-200.8,-140.8)"><g data-paper-data="{&quot;isPaintingLayer&quot;:true}" stroke-linecap="butt" stroke-linejoin="miter" stroke-miterlimit="10" stroke-dasharray="" stroke-dashoffset="0" style="mix-blend-mode: normal"><path d="M203.3,209.9c0,-8.78257 0,-47.6554 0,-61.6c0,-3.12661 2.48345,-5 5.2,-5c7.82752,0 46.3726,0 61.8,0c3.96258,0 6.4,2.9192 6.4,6c0,8.12015 0,45.15113 0,60.6c0,4.19609 -2.43742,6.8 -6.4,6.8c-15.4274,0 -53.97249,0 -61.8,0c-2.71655,0 -5.2,-3.36444 -5.2,-6.8z" fill="#022d3a" fill-rule="nonzero" stroke="#000000" stroke-width="5"/><path d="M229.2,180c0,-5.96468 4.83532,-10.8 10.8,-10.8c5.96468,0 10.8,4.83532 10.8,10.8c0,5.96468 -4.83532,10.8 -10.8,10.8c-5.96468,0 -10.8,-4.83532 -10.8,-10.8z" fill="#fcfcfc" fill-rule="nonzero" stroke="#ffffff" stroke-width="2"/><g fill-rule="evenodd" stroke-width="1"><path d="M257.74532,156.38849l-4.49582,-1.66145l15.81181,-4.05953l-4.72319,15.85943l-1.24513,-4.64945l-7.13279,7.13279l-5.37686,-5.37686z" fill="#12fcef" stroke="#000000"/><path d="M255.11143,168.24907l-3.51416,-3.51416c-0.0023,-0.0023 8.06222,-6.22794 11.21382,-9.37955l4.2362,-4.22698l1.69678,-0.49851l-0.33337,1.86193c-2.27134,2.29131 -1.95026,1.9518 -4.22775,4.23543c-3.15161,3.15161 -9.07153,11.52184 -9.07153,11.52184z" fill="#ffffff" stroke="none" opacity="0.95455"/></g><g data-paper-data="{&quot;index&quot;:null}" fill-rule="evenodd" stroke-width="1"><path d="M229.39464,162.96675l-5.37686,5.37686l-7.13279,-7.13278l-1.24513,4.64944l-4.72319,-15.85943l15.81181,4.05953l-4.49582,1.66145z" fill="#12fcef" stroke="#000000"/><path d="M215.79503,156.06056c-2.27749,-2.28363 -1.95641,-1.94412 -4.22775,-4.23543l-0.33337,-1.86193l1.69679,0.49851l4.23619,4.22697c3.15161,3.15161 11.21613,9.37725 11.21383,9.37955l-3.51416,3.51416c0,0 -5.91992,-8.37023 -9.07153,-11.52184z" fill="#ffffff" stroke="none" opacity="0.95455"/></g><g data-paper-data="{&quot;index&quot;:null}" fill-rule="evenodd" stroke-width="1"><path d="M221.566,203.25167l4.49582,1.66145l-15.81181,4.05953l4.72319,-15.85943l1.24513,4.64944l7.13278,-7.13278l5.37686,5.37686z" fill="#12fcef" stroke="#000000"/><path d="M224.19989,191.39109l3.51416,3.51416c0.0023,0.00231 -8.06221,6.22794 -11.21382,9.37955l-4.23619,4.22697l-1.69679,0.49851l0.33337,-1.86193c2.27134,-2.29131 1.95027,-1.9518 4.22775,-4.23543c3.15161,-3.15161 9.07153,-11.52184 9.07153,-11.52184z" fill="#ffffff" stroke="none" opacity="0.95455"/></g><g data-paper-data="{&quot;index&quot;:null}" fill-rule="evenodd" stroke-width="1"><path d="M249.91668,196.00674l5.37686,-5.37686l7.13279,7.13278l1.24513,-4.64944l4.72319,15.85943l-15.81181,-4.05953l4.49582,-1.66145z" fill="#12fcef" stroke="#000000"/><path d="M263.51629,202.91293c2.27749,2.28363 1.95641,1.94412 4.22775,4.23543l0.33337,1.86193l-1.69679,-0.49851l-4.23619,-4.22697c-3.15161,-3.15161 -11.21613,-9.37725 -11.21383,-9.37955l3.51416,-3.51416c0,0 5.91992,8.37023 9.07153,11.52184z" fill="#ffffff" stroke="none" opacity="0.95455"/></g></g></g></svg>