<svg version="1.1" xmlns="http://www.w3.org/2000/svg" xmlns:xlink="http://www.w3.org/1999/xlink" width="78.4" height="78.4" viewBox="0,0,78.4,78.4"><g transform="translate(-200.8,-140.8)"><g data-paper-data="{&quot;isPaintingLayer&quot;:true}" fill-rule="nonzero" stroke-linejoin="miter" stroke-miterlimit="10" stroke-dasharray="" stroke-dashoffset="0" style="mix-blend-mode: normal"><path d="M203.3,209.9c0,-8.78257 0,-47.6554 0,-61.6c0,-3.12661 2.48345,-5 5.2,-5c7.82752,0 46.3726,0 61.8,0c3.96258,0 6.4,2.9192 6.4,6c0,8.12015 0,45.15113 0,60.6c0,4.19609 -2.43742,6.8 -6.4,6.8c-15.4274,0 -53.97249,0 -61.8,0c-2.71655,0 -5.2,-3.36444 -5.2,-6.8z" fill="#022d3a" stroke="#000000" stroke-width="5" stroke-linecap="butt"/><g stroke="#ffffff"><g fill="none" stroke-width="5" stroke-linecap="round"><path d="M217.17889,196.61959l-5.02663,-23.9788"/><path d="M208.14998,185.22974l12.72345,-2.66719"/></g><g fill="#ffffff" stroke-linecap="butt"><path d="M252.82856,200.22875l-23.24468,4.87274l-0.92632,-4.41888l8.37988,-21.18124c1.22971,-3.19405 2.00501,-5.74448 2.32592,-7.65136c0.32091,-1.90688 0.28418,-3.80092 -0.11019,-5.68218c-0.52928,-2.52486 -1.52381,-4.47861 -2.98361,-5.86125c-1.45979,-1.38264 -3.12377,-1.87813 -4.99196,-1.48651c-2.2414,0.46986 -3.80148,1.70486 -4.6802,3.70498c-0.87873,2.00013 -0.99261,4.5503 -0.34163,7.65053l-4.50828,0.94506c-0.93345,-4.4529 -0.63644,-8.27281 0.89106,-11.4597c1.5275,-3.1869 4.05375,-5.15056 7.57878,-5.89099c3.29765,-0.69128 6.15226,-0.05835 8.56381,1.89878c2.41155,1.95713 4.02834,4.89634 4.85035,8.81762c0.99824,4.76195 -0.03832,10.89911 -3.10967,18.41149l-6.55696,16.04618l17.81167,-3.73383l1.05158,5.01642z" stroke-width="1"/><path d="M271.23673,174.84487c1.47938,7.05717 1.69513,12.48665 0.64723,16.28841c-1.04789,3.80176 -3.45113,6.09659 -7.20974,6.8845c-3.71069,0.77787 -6.80943,-0.32371 -9.29621,-3.3047c-2.48678,-2.98099 -4.46102,-7.7981 -5.92275,-14.4513l-1.68637,-8.0446c-1.46132,-6.97102 -1.66337,-12.33516 -0.60616,-16.09246c1.05722,-3.7573 3.47314,-6.03228 7.24774,-6.82501c3.74229,-0.78449 6.83964,0.27239 9.29204,3.17065c2.45241,2.89825 4.4172,7.75142 5.89437,14.55953l1.63874,7.81738zM265.09129,167.53044c-1.06977,-5.10318 -2.37475,-8.71204 -3.91492,-10.82657c-1.54017,-2.11453 -3.44915,-2.93305 -5.72693,-2.45556c-2.26147,0.47407 -3.66587,1.98135 -4.2132,4.52188c-0.54733,2.54053 -0.33198,6.22472 0.64604,11.05263l2.02112,9.64143c1.07443,5.12543 2.41283,8.79474 4.01518,11.00794c1.60235,2.2132 3.51046,3.08848 5.72433,2.62585c2.18198,-0.4574 3.56119,-1.94781 4.13764,-4.47122c0.57645,-2.52341 0.36961,-6.26599 -0.62051,-11.22773z" stroke-width="1.5"/></g></g></g></g></svg>