<svg version="1.1" xmlns="http://www.w3.org/2000/svg" xmlns:xlink="http://www.w3.org/1999/xlink" width="78.4" height="78.4" viewBox="0,0,78.4,78.4"><defs><linearGradient x1="258.0884" y1="173.37317" x2="221.34469" y2="191.78005" gradientUnits="userSpaceOnUse" id="color-1"><stop offset="0" stop-color="#ffffff"/><stop offset="1" stop-color="#ff8d8d"/></linearGradient></defs><g transform="translate(-200.8,-140.8)"><g data-paper-data="{&quot;isPaintingLayer&quot;:true}" fill-rule="nonzero" stroke-linecap="butt" stroke-linejoin="miter" stroke-miterlimit="10" stroke-dasharray="" stroke-dashoffset="0" style="mix-blend-mode: normal"><path d="M203.3,209.9c0,-8.78257 0,-47.6554 0,-61.6c0,-3.12661 2.48345,-5 5.2,-5c7.82752,0 46.3726,0 61.8,0c3.96258,0 6.4,2.9192 6.4,6c0,8.12015 0,45.15113 0,60.6c0,4.19609 -2.43742,6.8 -6.4,6.8c-15.4274,0 -53.97249,0 -61.8,0c-2.71655,0 -5.2,-3.36444 -5.2,-6.8z" fill="#022d3a" stroke="#000000" stroke-width="5"/><path d="M233.03603,176.78559l12.47838,-29.11623l29.11623,12.47838l-12.47838,29.11624z" fill="#d77cf7" stroke="#ffffff" stroke-width="0"/><path d="M214.34104,172.44776l31.31247,23.73119l-36.66175,15.3207z" fill="#00ffe4" stroke="#000000" stroke-width="0"/><path d="M260.3921,173.79731c-4.82757,0.15032 -15.22324,5.98153 -15.22324,5.98153c1.54017,-2.17539 2.30493,-4.03652 2.67339,-5.18118c-14.61454,0.34427 -24.34994,15.24371 -27.22914,29.45796c1.35812,-8.59455 1.93008,-15.68192 -3.84993,-10.59298c3.15779,-16.00491 23.09996,-21.96189 31.26193,-21.539c-0.22818,-1.25939 -0.83177,-3.17547 -2.41869,-5.11681c0,0 9.96131,5.3817 14.78581,6.99008z" fill="url(#color-1)" stroke="#000000" stroke-width="2"/></g></g></svg>