<svg version="1.1" xmlns="http://www.w3.org/2000/svg" xmlns:xlink="http://www.w3.org/1999/xlink" width="78.4" height="78.4" viewBox="0,0,78.4,78.4"><g transform="translate(-200.8,-140.8)"><g data-paper-data="{&quot;isPaintingLayer&quot;:true}" fill-rule="nonzero" stroke-linejoin="miter" stroke-miterlimit="10" stroke-dasharray="" stroke-dashoffset="0" style="mix-blend-mode: normal"><path d="M203.3,209.9c0,-8.78257 0,-47.6554 0,-61.6c0,-3.12661 2.48345,-5 5.2,-5c7.82752,0 46.3726,0 61.8,0c3.96258,0 6.4,2.9192 6.4,6c0,8.12015 0,45.15113 0,60.6c0,4.19609 -2.43742,6.8 -6.4,6.8c-15.4274,0 -53.97249,0 -61.8,0c-2.71655,0 -5.2,-3.36444 -5.2,-6.8z" fill="#022d3a" stroke="#000000" stroke-width="5" stroke-linecap="butt"/><g><path d="M256.80182,189.66693l5.79556,2.28865l-2.1328,5.40091l-5.79556,-2.28865l-4.77462,12.09081l-5.33647,-2.10735l4.77462,-12.09081l-19.02288,-7.51207l1.5397,-3.899l32.96311,-28.70807l5.65233,2.23208l-13.66024,34.59194zM238.46573,182.42607l12.99778,5.13278l10.08628,-25.54157l-1.19678,1.18147z" fill="#ff0000" stroke="#000000" stroke-width="1" stroke-linecap="butt"/><g fill="none" stroke="#ff1111" stroke-width="5" stroke-linecap="round"><path d="M215.76841,166.28292l9.55119,22.0176"/><path d="M231.5528,172.51613l-22.0176,9.55119"/></g></g></g></g></svg>