<svg version="1.1" xmlns="http://www.w3.org/2000/svg" xmlns:xlink="http://www.w3.org/1999/xlink" width="78.4" height="78.4" viewBox="0,0,78.4,78.4"><defs><linearGradient x1="210.73414" y1="198.89249" x2="208.83195" y2="199.43028" gradientUnits="userSpaceOnUse" id="color-1"><stop offset="0" stop-color="#41a9ff"/><stop offset="1" stop-color="#41a9ff" stop-opacity="0"/></linearGradient><linearGradient x1="210.73414" y1="198.89249" x2="208.83195" y2="199.43028" gradientUnits="userSpaceOnUse" id="color-2"><stop offset="0" stop-color="#41a9ff"/><stop offset="1" stop-color="#41a9ff" stop-opacity="0"/></linearGradient><linearGradient x1="232.48057" y1="195.6891" x2="223.96476" y2="190.98188" gradientUnits="userSpaceOnUse" id="color-3"><stop offset="0" stop-color="#ffffff"/><stop offset="1" stop-color="#ffffff" stop-opacity="0"/></linearGradient><radialGradient cx="243.13163" cy="199.47959" r="70.21265" gradientUnits="userSpaceOnUse" id="color-4"><stop offset="0" stop-color="#ffffff"/><stop offset="1" stop-color="#ffffff" stop-opacity="0"/></radialGradient></defs><g transform="translate(-200.8,-140.8)"><g data-paper-data="{&quot;isPaintingLayer&quot;:true}" stroke-linecap="butt" stroke-linejoin="miter" stroke-miterlimit="10" stroke-dasharray="" stroke-dashoffset="0" style="mix-blend-mode: normal"><path d="M203.3,209.9c0,-8.78257 0,-47.6554 0,-61.6c0,-3.12661 2.48345,-5 5.2,-5c7.82752,0 46.3726,0 61.8,0c3.96258,0 6.4,2.9192 6.4,6c0,8.12015 0,45.15113 0,60.6c0,4.19609 -2.43742,6.8 -6.4,6.8c-15.4274,0 -53.97249,0 -61.8,0c-2.71655,0 -5.2,-3.36444 -5.2,-6.8z" fill="#022d3a" fill-rule="nonzero" stroke="#000000" stroke-width="5"/><path d="M232.7,157.5c0,-4.03168 3.26832,-7.3 7.3,-7.3c4.03168,0 7.3,3.26832 7.3,7.3c0,4.03168 -3.26832,7.3 -7.3,7.3c-4.03168,0 -7.3,-3.26832 -7.3,-7.3z" fill="#fcfcfc" fill-rule="nonzero" stroke="#ffffff" stroke-width="2"/><path d="M210.4933,164.19958c0.56506,-1.40044 0.63076,1.60553 0.77829,3.89386c0.2274,-0.14389 3.51418,-1.25211 5.87884,-2.72753l7.11889,-4.44181c2.51894,-1.57168 3.00434,-5.3088 4.54758,-2.83545l3.95913,6.3453c1.46396,2.65746 -2.02684,1.26664 -4.54578,2.83833l-7.11889,4.44181c-2.36466,1.47542 -4.83506,3.89205 -5.06426,4.03306c2.04796,0.98391 5.70742,2.21217 3.21557,2.5071l-14.33893,-0.17615c-1.32332,-0.08287 -0.7964,-0.67561 -0.65748,-1.16158z" fill="#41a9ff" fill-rule="evenodd" stroke="#0c0e7c" stroke-width="2"/><path d="M275.40193,176.41652c0.13892,0.48596 0.66585,1.0787 -0.65748,1.16157l-14.33893,0.17615c-2.49185,-0.29494 1.16762,-1.5232 3.21557,-2.5071c-0.2292,-0.14101 -2.6996,-2.55763 -5.06426,-4.03305l-7.1189,-4.44181c-2.51894,-1.57169 -6.00974,-0.18087 -4.54578,-2.83833l3.95913,-6.3453c1.54324,-2.47335 2.02865,1.26376 4.54758,2.83544l7.11889,4.44181c2.36466,1.47543 5.65143,2.58364 5.87884,2.72753c0.14753,-2.28832 0.21323,-5.2943 0.77828,-3.89386z" data-paper-data="{&quot;index&quot;:null}" fill="#41a9ff" fill-rule="evenodd" stroke="#0c0e7c" stroke-width="2"/><path d="M212.26632,190.27597c5.07886,7.07217 23.55917,9.76913 34.9537,4.6251l-6.03822,-2.27166l23.47591,-2.33239l-4.81274,9.35412l-5.85518,-2.20282c-16.06598,6.81297 -43.38895,1.81717 -41.72397,-7.17228z" data-paper-data="{&quot;index&quot;:null}" fill="url(#color-1)" fill-rule="nonzero" stroke="url(#color-2)" stroke-width="2"/><path d="M212.93249,191.93813c7.40425,6.15102 24.36212,8.21104 35.73239,2.82729l-5.16959,-1.94491l19.83201,-1.95959l-4.08861,7.88214l-5.05809,-1.90297c-14.57367,6.43543 -39.53742,2.97623 -41.24801,-4.90201z" data-paper-data="{&quot;index&quot;:null}" fill="none" fill-rule="nonzero" stroke="url(#color-3)" stroke-width="2" opacity="0.69886"/><path d="M259.55397,199.14222l-0.66578,-0.25018l-4.69315,-1.76662c-7.40615,3.13343 -16.913,3.92079 -26.25997,2.75334c-5.87304,-0.73347 -10.0766,-2.70956 -10.0766,-2.70956c20.48305,5.9228 26.22211,-2.86125 43.71426,-1.92074z" data-paper-data="{&quot;index&quot;:null}" fill="url(#color-4)" fill-rule="nonzero" stroke="none" stroke-width="1" opacity="0.69886"/></g></g></svg>