<svg version="1.1" xmlns="http://www.w3.org/2000/svg" xmlns:xlink="http://www.w3.org/1999/xlink" width="15.484" height="22.75" viewBox="0,0,15.484,22.75"><g transform="translate(-232.641,-165.25)"><g data-paper-data="{&quot;isPaintingLayer&quot;:true}" fill="#f60707" fill-rule="nonzero" stroke="none" stroke-width="1" stroke-linecap="butt" stroke-linejoin="miter" stroke-miterlimit="10" stroke-dasharray="" stroke-dashoffset="0" style="mix-blend-mode: normal"><path d="M232.641,188v-22.75h7.438c2.46867,0 4.32533,0.51033 5.57,1.531c1.24467,1.02067 1.867,2.531 1.867,4.531c0,1.06267 -0.302,2.00267 -0.906,2.82c-0.604,0.81733 -1.427,1.45 -2.469,1.898c1.22933,0.344 2.20067,0.99767 2.914,1.961c0.71333,0.96333 1.07,2.11167 1.07,3.445c0,2.042 -0.66133,3.64633 -1.984,4.813c-1.32267,1.16667 -3.19233,1.75 -5.609,1.75h-7.891zM235.641,177.359v8.188h4.953c1.396,0 2.49767,-0.362 3.305,-1.086c0.80733,-0.724 1.211,-1.72133 1.211,-2.992c0,-2.73933 -1.48967,-4.109 -4.469,-4.109h-5zM235.641,174.953h4.531c1.31267,0 2.362,-0.328 3.148,-0.984c0.786,-0.656 1.17933,-1.54667 1.18,-2.672c0,-1.25 -0.36467,-2.159 -1.094,-2.727c-0.72933,-0.568 -1.83867,-0.852 -3.328,-0.852h-4.438v7.234z"/></g></g></svg>