<svg version="1.1" xmlns="http://www.w3.org/2000/svg" xmlns:xlink="http://www.w3.org/1999/xlink" width="17.517" height="23.375" viewBox="0,0,17.517,23.375"><g transform="translate(-231.359,-164.937)"><g data-paper-data="{&quot;isPaintingLayer&quot;:true}" fill="#f60e0e" fill-rule="nonzero" stroke="none" stroke-width="1" stroke-linecap="butt" stroke-linejoin="miter" stroke-miterlimit="10" stroke-dasharray="" stroke-dashoffset="0" style="mix-blend-mode: normal"><path d="M248.875,180.781c-0.28133,2.406 -1.16933,4.26267 -2.664,5.57c-1.49467,1.30733 -3.48167,1.961 -5.961,1.961c-2.68733,0 -4.841,-0.96367 -6.461,-2.891c-1.62,-1.92733 -2.43,-4.50533 -2.43,-7.734v-2.188c0,-2.11467 0.37767,-3.974 1.133,-5.578c0.75533,-1.604 1.82567,-2.83567 3.211,-3.695c1.38533,-0.85933 2.98967,-1.289 4.813,-1.289c2.41667,0 4.35433,0.67433 5.813,2.023c1.45867,1.34867 2.30767,3.216 2.547,5.602h-3.016c-0.26067,-1.81267 -0.82567,-3.12533 -1.695,-3.938c-0.86933,-0.81267 -2.08533,-1.219 -3.648,-1.219c-1.91667,0 -3.41933,0.70833 -4.508,2.125c-1.08867,1.41667 -1.633,3.43233 -1.633,6.047v2.203c0,2.46867 0.51567,4.43233 1.547,5.891c1.03133,1.45867 2.474,2.188 4.328,2.188c1.66667,0 2.94533,-0.37767 3.836,-1.133c0.89067,-0.75533 1.48167,-2.07033 1.773,-3.945h3.016z"/></g></g></svg>