<svg version="1.1" xmlns="http://www.w3.org/2000/svg" xmlns:xlink="http://www.w3.org/1999/xlink" width="16.453" height="22.751" viewBox="0,0,16.453,22.751"><g transform="translate(-232.141,-165.25)"><g data-paper-data="{&quot;isPaintingLayer&quot;:true}" fill="#f60d0d" fill-rule="nonzero" stroke="none" stroke-width="1" stroke-linecap="butt" stroke-linejoin="miter" stroke-miterlimit="10" stroke-dasharray="" stroke-dashoffset="0" style="mix-blend-mode: normal"><path d="M232.141,188v-22.75h6.422c1.97933,0 3.72933,0.43767 5.25,1.313c1.52067,0.87533 2.695,2.12 3.523,3.734c0.828,1.614 1.24733,3.46833 1.258,5.563v1.453c0,2.146 -0.414,4.02633 -1.242,5.641c-0.828,1.61467 -2.01033,2.85433 -3.547,3.719c-1.53667,0.86467 -3.32567,1.30733 -5.367,1.328h-6.297zM235.141,167.719v17.828h3.156c2.31267,0 4.112,-0.71867 5.398,-2.156c1.286,-1.43733 1.92933,-3.48433 1.93,-6.141v-1.328c0,-2.58333 -0.60667,-4.591 -1.82,-6.023c-1.21333,-1.432 -2.93467,-2.15867 -5.164,-2.18z"/></g></g></svg>