<svg version="1.1" xmlns="http://www.w3.org/2000/svg" xmlns:xlink="http://www.w3.org/1999/xlink" width="14.469" height="23.376" viewBox="0,0,14.469,23.376"><g transform="translate(-232.75,-164.936)"><g data-paper-data="{&quot;isPaintingLayer&quot;:true}" fill="#f90404" fill-rule="nonzero" stroke="none" stroke-width="1" stroke-linecap="butt" stroke-linejoin="miter" stroke-miterlimit="10" stroke-dasharray="" stroke-dashoffset="0" style="mix-blend-mode: normal"><path d="M246.688,171.188c0,1.13533 -0.29933,2.14567 -0.898,3.031c-0.59867,0.88533 -1.40867,1.578 -2.43,2.078c1.18733,0.51067 2.12733,1.25533 2.82,2.234c0.69267,0.97867 1.039,2.088 1.039,3.328c0,1.96867 -0.664,3.53633 -1.992,4.703c-1.328,1.16667 -3.07533,1.75 -5.242,1.75c-2.18733,0 -3.94,-0.586 -5.258,-1.758c-1.318,-1.172 -1.977,-2.737 -1.977,-4.695c0,-1.22933 0.336,-2.33867 1.008,-3.328c0.672,-0.98933 1.60167,-1.73933 2.789,-2.25c-1.01067,-0.5 -1.80767,-1.19267 -2.391,-2.078c-0.58333,-0.88533 -0.875,-1.89067 -0.875,-3.016c0,-1.91667 0.61467,-3.43767 1.844,-4.563c1.22933,-1.12533 2.849,-1.688 4.859,-1.688c2,0 3.61733,0.56267 4.852,1.688c1.23467,1.12533 1.852,2.64633 1.852,4.563zM244.328,181.797c0,-1.27067 -0.40367,-2.307 -1.211,-3.109c-0.80733,-0.802 -1.862,-1.203 -3.164,-1.203c-1.302,0 -2.34633,0.396 -3.133,1.188c-0.78667,0.792 -1.18,1.83367 -1.18,3.125c0,1.29133 0.38267,2.307 1.148,3.047c0.76533,0.74 1.83033,1.10967 3.195,1.109c1.354,0 2.41667,-0.37233 3.188,-1.117c0.77133,-0.74467 1.15667,-1.75767 1.156,-3.039zM239.984,167.313c-1.13533,0 -2.05467,0.35167 -2.758,1.055c-0.70333,0.70333 -1.055,1.659 -1.055,2.867c0,1.156 0.34633,2.091 1.039,2.805c0.69267,0.714 1.617,1.07067 2.773,1.07c1.156,-0.00067 2.08033,-0.35733 2.773,-1.07c0.69267,-0.71267 1.039,-1.64767 1.039,-2.805c0,-1.15733 -0.35933,-2.1 -1.078,-2.828c-0.71867,-0.728 -1.63,-1.09267 -2.734,-1.094z"/></g></g></svg>