<svg version="1.1" xmlns="http://www.w3.org/2000/svg" xmlns:xlink="http://www.w3.org/1999/xlink" width="17.532" height="23.375" viewBox="0,0,17.532,23.375"><g transform="translate(-230.906,-164.938)"><g data-paper-data="{&quot;isPaintingLayer&quot;:true}" fill="#ff0000" fill-rule="nonzero" stroke="none" stroke-width="1" stroke-linecap="butt" stroke-linejoin="miter" stroke-miterlimit="10" stroke-dasharray="" stroke-dashoffset="0" style="mix-blend-mode: normal"><path d="M248.438,185.016c-0.77067,1.104 -1.84633,1.92967 -3.227,2.477c-1.38067,0.54733 -2.98733,0.82067 -4.82,0.82c-1.854,0 -3.5,-0.435 -4.938,-1.305c-1.438,-0.87 -2.55,-2.107 -3.336,-3.711c-0.786,-1.604 -1.18967,-3.46333 -1.211,-5.578v-1.984c0,-3.42733 0.79933,-6.08367 2.398,-7.969c1.59867,-1.88533 3.846,-2.828 6.742,-2.828c2.37533,0 4.28667,0.60667 5.734,1.82c1.44733,1.21333 2.33267,2.93467 2.656,5.164h-3c-0.56267,-3.01067 -2.35433,-4.516 -5.375,-4.516c-2.01067,0 -3.534,0.70567 -4.57,2.117c-1.036,1.41133 -1.55933,3.45567 -1.57,6.133v1.859c0,2.552 0.58333,4.58067 1.75,6.086c1.16667,1.50533 2.74467,2.258 4.734,2.258c1.12533,0 2.10967,-0.125 2.953,-0.375c0.84333,-0.25 1.54133,-0.672 2.094,-1.266v-5.109h-5.266v-2.438h8.25v8.344z"/></g></g></svg>