<svg version="1.1" xmlns="http://www.w3.org/2000/svg" xmlns:xlink="http://www.w3.org/1999/xlink" width="18.299" height="23.376" viewBox="0,0,18.299,23.376"><g transform="translate(-230.842,-164.937)"><g data-paper-data="{&quot;isPaintingLayer&quot;:true}" fill="#ff0000" fill-rule="nonzero" stroke="none" stroke-width="1" stroke-linecap="butt" stroke-linejoin="miter" stroke-miterlimit="10" stroke-dasharray="" stroke-dashoffset="0" style="mix-blend-mode: normal"><path d="M249.141,177.359c0,2.22933 -0.375,4.17467 -1.125,5.836c-0.75,1.66133 -1.81267,2.92967 -3.188,3.805c-1.37533,0.87533 -2.97967,1.313 -4.813,1.313c-1.792,0 -3.38067,-0.44 -4.766,-1.32c-1.38533,-0.88 -2.461,-2.13533 -3.227,-3.766c-0.766,-1.63067 -1.15933,-3.51867 -1.18,-5.664v-1.641c0,-2.18733 0.38033,-4.11967 1.141,-5.797c0.76067,-1.67733 1.83633,-2.96133 3.227,-3.852c1.39067,-0.89067 2.98167,-1.336 4.773,-1.336c1.82267,0 3.42933,0.44 4.82,1.32c1.39067,0.88 2.461,2.156 3.211,3.828c0.75,1.672 1.125,3.61733 1.125,5.836v1.438zM246.156,175.891c0,-2.698 -0.54167,-4.76833 -1.625,-6.211c-1.08333,-1.44267 -2.599,-2.164 -4.547,-2.164c-1.896,0 -3.38833,0.72133 -4.477,2.164c-1.08867,1.44267 -1.64867,3.44533 -1.68,6.008v1.672c0,2.61467 0.54933,4.66933 1.648,6.164c1.09867,1.49467 2.61167,2.242 4.539,2.242c1.93733,0 3.43733,-0.70567 4.5,-2.117c1.06267,-1.41133 1.60967,-3.43467 1.641,-6.07v-1.688z"/></g></g></svg>