<svg version="1.1" xmlns="http://www.w3.org/2000/svg" xmlns:xlink="http://www.w3.org/1999/xlink" width="16.36" height="22.75" viewBox="0,0,16.36,22.75"><g transform="translate(-232.641,-165.25)"><g data-paper-data="{&quot;isPaintingLayer&quot;:true}" fill="#ff0000" fill-rule="nonzero" stroke="none" stroke-width="1" stroke-linecap="butt" stroke-linejoin="miter" stroke-miterlimit="10" stroke-dasharray="" stroke-dashoffset="0" style="mix-blend-mode: normal"><path d="M235.641,179.094v8.906h-3v-22.75h8.391c2.48933,0 4.44,0.63533 5.852,1.906c1.412,1.27067 2.11767,2.953 2.117,5.047c0,2.20867 -0.69,3.90933 -2.07,5.102c-1.38,1.19267 -3.35667,1.789 -5.93,1.789h-5.359zM235.641,176.641h5.391c1.604,0 2.83333,-0.37767 3.688,-1.133c0.85467,-0.75533 1.28167,-1.84633 1.281,-3.273c0,-1.354 -0.427,-2.43733 -1.281,-3.25c-0.854,-0.81267 -2.026,-1.23467 -3.516,-1.266h-5.563z"/></g></g></svg>