<svg version="1.1" xmlns="http://www.w3.org/2000/svg" xmlns:xlink="http://www.w3.org/1999/xlink" width="18.392" height="26.908" viewBox="0,0,18.392,26.908"><g transform="translate(-230.702,-164.937)"><g data-paper-data="{&quot;isPaintingLayer&quot;:true}" fill="#ff0000" fill-rule="nonzero" stroke="none" stroke-width="1" stroke-linecap="butt" stroke-linejoin="miter" stroke-miterlimit="10" stroke-dasharray="" stroke-dashoffset="0" style="mix-blend-mode: normal"><path d="M249.016,177.359c0,2.198 -0.349,4.09133 -1.047,5.68c-0.698,1.58867 -1.67733,2.831 -2.938,3.727l4.063,3.188l-2.047,1.891l-4.797,-3.813c-0.75,0.18733 -1.54167,0.281 -2.375,0.281c-1.792,0 -3.38067,-0.44 -4.766,-1.32c-1.38533,-0.88 -2.461,-2.13533 -3.227,-3.766c-0.766,-1.63067 -1.15933,-3.51867 -1.18,-5.664v-1.641c0,-2.18733 0.38033,-4.11967 1.141,-5.797c0.76067,-1.67733 1.83633,-2.96133 3.227,-3.852c1.39067,-0.89067 2.98167,-1.336 4.773,-1.336c1.83333,0 3.44533,0.44267 4.836,1.328c1.39067,0.88533 2.461,2.15867 3.211,3.82c0.75,1.66133 1.125,3.60133 1.125,5.82v1.453zM246.016,175.891c0,-2.67733 -0.534,-4.74233 -1.602,-6.195c-1.068,-1.45267 -2.59133,-2.17933 -4.57,-2.18c-1.88533,0 -3.37233,0.72133 -4.461,2.164c-1.08867,1.44267 -1.64867,3.44533 -1.68,6.008v1.672c0,2.604 0.54433,4.656 1.633,6.156c1.08867,1.5 2.60167,2.25 4.539,2.25c1.93733,0 3.43733,-0.70567 4.5,-2.117c1.06267,-1.41133 1.60967,-3.43467 1.641,-6.07z"/></g></g></svg>