<svg version="1.1" xmlns="http://www.w3.org/2000/svg" xmlns:xlink="http://www.w3.org/1999/xlink" width="16.516" height="22.75" viewBox="0,0,16.516,22.75"><g transform="translate(-232.624,-165.25)"><g data-paper-data="{&quot;isPaintingLayer&quot;:true}" fill="#ff0000" fill-rule="nonzero" stroke="none" stroke-width="1" stroke-linecap="butt" stroke-linejoin="miter" stroke-miterlimit="10" stroke-dasharray="" stroke-dashoffset="0" style="mix-blend-mode: normal"><path d="M240.984,178.797h-5.344v9.203h-3.016v-22.75h7.531c2.56267,0 4.534,0.58333 5.914,1.75c1.38,1.16667 2.07,2.86467 2.07,5.094c0,1.41667 -0.38267,2.651 -1.148,3.703c-0.76533,1.052 -1.83033,1.83833 -3.195,2.359l5.344,9.656v0.188h-3.219zM235.641,176.344h4.609c1.48933,0 2.67433,-0.38533 3.555,-1.156c0.88067,-0.77067 1.32067,-1.802 1.32,-3.094c0,-1.406 -0.41933,-2.484 -1.258,-3.234c-0.83867,-0.75 -2.04967,-1.13033 -3.633,-1.141h-4.594v8.625z"/></g></g></svg>