<svg version="1.1" xmlns="http://www.w3.org/2000/svg" xmlns:xlink="http://www.w3.org/1999/xlink" width="16.532" height="23.376" viewBox="0,0,16.532,23.376"><g transform="translate(-231.75,-164.937)"><g data-paper-data="{&quot;isPaintingLayer&quot;:true}" fill="#ff0000" fill-rule="nonzero" stroke="none" stroke-width="1" stroke-linecap="butt" stroke-linejoin="miter" stroke-miterlimit="10" stroke-dasharray="" stroke-dashoffset="0" style="mix-blend-mode: normal"><path d="M239.844,177.859c-2.57267,-0.73933 -4.445,-1.64833 -5.617,-2.727c-1.172,-1.07867 -1.758,-2.40933 -1.758,-3.992c0,-1.792 0.716,-3.27367 2.148,-4.445c1.432,-1.17133 3.294,-1.75733 5.586,-1.758c1.56267,0 2.956,0.302 4.18,0.906c1.224,0.604 2.172,1.43733 2.844,2.5c0.672,1.06267 1.008,2.224 1.008,3.484h-3.016c0,-1.37533 -0.43767,-2.456 -1.313,-3.242c-0.87533,-0.786 -2.10967,-1.17933 -3.703,-1.18c-1.47933,0 -2.633,0.32567 -3.461,0.977c-0.828,0.65133 -1.242,1.555 -1.242,2.711c0,0.92733 0.39333,1.71133 1.18,2.352c0.78667,0.64067 2.12533,1.22667 4.016,1.758c1.89067,0.53133 3.37,1.11733 4.438,1.758c1.068,0.64067 1.85967,1.388 2.375,2.242c0.51533,0.854 0.773,1.85933 0.773,3.016c0,1.844 -0.71867,3.32067 -2.156,4.43c-1.43733,1.10933 -3.35933,1.664 -5.766,1.664c-1.56267,0 -3.021,-0.29933 -4.375,-0.898c-1.354,-0.59867 -2.39833,-1.419 -3.133,-2.461c-0.73467,-1.042 -1.102,-2.22433 -1.102,-3.547h3.016c0,1.37533 0.50767,2.46133 1.523,3.258c1.01533,0.79667 2.372,1.195 4.07,1.195c1.58333,0 2.797,-0.323 3.641,-0.969c0.844,-0.646 1.266,-1.52633 1.266,-2.641c0,-1.11467 -0.39067,-1.97667 -1.172,-2.586c-0.78133,-0.60933 -2.198,-1.211 -4.25,-1.805z"/></g></g></svg>