<svg version="1.1" xmlns="http://www.w3.org/2000/svg" xmlns:xlink="http://www.w3.org/1999/xlink" width="322.90391" height="276" viewBox="0,0,322.90391,276"><g transform="translate(-24.49402,-81.00901)"><g data-paper-data="{&quot;isPaintingLayer&quot;:true}" fill-rule="nonzero" stroke-linecap="butt" stroke-linejoin="miter" stroke-miterlimit="10" stroke-dasharray="" stroke-dashoffset="0" style="mix-blend-mode: normal"><path d="M33.49402,328.409c0,-52.36663 0,-193.43471 0,-221c0,-9.14161 7.34865,-17.39999 15.96754,-17.39999c31.20951,0 218.65285,0 273.72919,0c9.62473,0 15.20718,6.67757 15.20718,14.39999c0,25.51553 0,167.24052 0,222c0,13.40622 -6.46569,21.60001 -17.48825,21.60001c-59.04666,0 -248.85879,0 -276.01027,0c-6.35151,0 -11.40538,-7.38811 -11.40538,-19.60001z" fill="none" stroke="#0f2166" stroke-width="18"/><path d="M192.24103,94.14699v-9.76487h3.19258c1.05961,0 1.85654,0.21904 2.39078,0.65714c0.53424,0.4381 0.80137,1.08637 0.80137,1.94482c0,0.45613 -0.12963,0.8596 -0.38888,1.21042c-0.25925,0.35082 -0.61251,0.62238 -1.05976,0.81466c0.52766,0.14766 0.94459,0.42822 1.25076,0.84171c0.30617,0.41348 0.45926,0.90638 0.45926,1.47868c0,0.87648 -0.28386,1.56509 -0.85158,2.06586c-0.56772,0.50077 -1.37022,0.75114 -2.40752,0.75114h-3.38701zM193.52869,89.57961v3.51449h2.12595c0.5992,0 1.07206,-0.15538 1.41859,-0.46613c0.34653,-0.31075 0.51979,-0.73884 0.51979,-1.28424c0,-1.17579 -0.63941,-1.76369 -1.9182,-1.76369h-2.14612zM193.52869,88.5469h1.94482c0.56343,0 1.01383,-0.14078 1.3512,-0.42236c0.33737,-0.28158 0.5062,-0.66387 0.50648,-1.14689c0,-0.53653 -0.15652,-0.9267 -0.46957,-1.1705c-0.31304,-0.2438 -0.7892,-0.3657 -1.42846,-0.3657h-1.9049v3.10501z" fill="#7e98f0" stroke="none" stroke-width="1"/><path d="M205.1612,91.6715h-4.09094l-0.91897,2.54874h-1.32802l3.72911,-9.76487h1.12671l3.73554,9.76487h-1.32116zM201.45913,90.61175h3.31963l-1.66324,-4.56738z" fill="#7e98f0" stroke="none" stroke-width="1"/><path d="M209.67572,93.16692h4.62747v1.05289h-5.92202v-9.76487h1.29454z" fill="#7e98f0" stroke="none" stroke-width="1"/><path d="M232.90725,90.08606h-2.29378v3.95016h-1.29454v-9.76487h3.23249c1.09996,0 1.9461,0.25038 2.53843,0.75114c0.59233,0.50077 0.8885,1.22959 0.8885,2.18648c0,0.60807 -0.16425,1.13788 -0.49275,1.58942c-0.3285,0.45155 -0.78563,0.78906 -1.37138,1.01254l2.29378,4.1446v0.0807h-1.38168zM230.61388,89.03318h1.9783c0.63926,0 1.14789,-0.1654 1.52589,-0.49619c0.378,-0.33079 0.56686,-0.77346 0.56658,-1.32802c0,-0.60349 -0.17999,-1.06619 -0.53997,-1.38811c-0.35998,-0.32192 -0.87977,-0.48517 -1.55937,-0.48975h-1.97185v3.70207z" fill="#7e98f0" stroke="none" stroke-width="1"/><path d="M244.60835,89.46884c0,0.95688 -0.16095,1.79188 -0.48288,2.50496c-0.32192,0.71308 -0.77804,1.25749 -1.36837,1.6332c-0.59032,0.37571 -1.27895,0.56357 -2.06586,0.56357c-0.76917,0 -1.45107,-0.18887 -2.04569,-0.56658c-0.59462,-0.37772 -1.05632,-0.91654 -1.38511,-1.61646c-0.32879,-0.69992 -0.49761,-1.51029 -0.50648,-2.43113v-0.70436c0,-0.93885 0.16324,-1.76826 0.48974,-2.48821c0.3265,-0.71995 0.7882,-1.27107 1.38511,-1.65337c0.59691,-0.3823 1.27981,-0.57344 2.04869,-0.57344c0.78234,0 1.47195,0.18886 2.06886,0.56658c0.59691,0.37772 1.05632,0.92541 1.37824,1.64307c0.32192,0.71766 0.48288,1.55266 0.48288,2.50497v0.61722zM243.3271,88.83873c0,-1.15804 -0.2325,-2.04669 -0.69749,-2.66592c-0.46499,-0.61923 -1.11555,-0.92885 -1.95168,-0.92885c-0.81381,0 -1.45436,0.30962 -1.92164,0.92885c-0.46728,0.61923 -0.70765,1.47882 -0.7211,2.57879v0.71766c0,1.12229 0.23579,2.0042 0.70736,2.64574c0.47157,0.64154 1.121,0.96232 1.94825,0.96232c0.83155,0 1.47539,-0.30289 1.93151,-0.90867c0.45613,-0.60578 0.69091,-1.47425 0.70436,-2.6054v-0.72453z" fill="#7e98f0" stroke="none" stroke-width="1"/><path d="M247.34308,90.95782l0.188,1.28768l0.27513,-1.1602l1.93151,-6.81395h1.08637l1.88473,6.81395l0.26826,1.18037l0.20775,-1.31471l1.51559,-6.68003h1.29454l-2.36761,9.76487h-1.1735l-2.01221,-7.11569l-0.15409,-0.74427l-0.15409,0.74427l-2.0856,7.11569h-1.1735l-2.36074,-9.76487h1.28768z" fill="#7e98f0" stroke="none" stroke-width="1"/><path d="M269.82766,89.68345c-1.10425,-0.31733 -1.9079,-0.7075 -2.41096,-1.1705c-0.50305,-0.46299 -0.75457,-1.03414 -0.75457,-1.71347c0,-0.76917 0.30733,-1.40514 0.92197,-1.9079c0.61465,-0.50276 1.41387,-0.75429 2.39765,-0.75457c0.67074,0 1.26879,0.12962 1.79416,0.38888c0.52537,0.25925 0.93228,0.61695 1.22071,1.07306c0.28844,0.45613 0.43266,0.9546 0.43266,1.49542h-1.29454c0,-0.59032 -0.18785,-1.05418 -0.56357,-1.39155c-0.37571,-0.33737 -0.90552,-0.5062 -1.58942,-0.50649c-0.63496,0 -1.13015,0.13979 -1.48555,0.41936c-0.3554,0.27957 -0.53309,0.66744 -0.53309,1.16362c0,0.39804 0.16882,0.73455 0.50649,1.00953c0.33766,0.275 0.91225,0.52652 1.72377,0.75458c0.81152,0.22806 1.44649,0.47959 1.9049,0.75458c0.45841,0.275 0.79822,0.59576 1.0194,0.96232c0.22119,0.36656 0.33179,0.79807 0.33179,1.29453c0,0.7915 -0.30848,1.42532 -0.92541,1.90148c-0.61694,0.47615 -1.44191,0.71423 -2.47491,0.71423c-0.67074,0 -1.29669,-0.12848 -1.87786,-0.38544c-0.58117,-0.25697 -1.02942,-0.60907 -1.34476,-1.05633c-0.31534,-0.44725 -0.47301,-0.95474 -0.47301,-1.52247h1.29454c0,0.59032 0.2179,1.05647 0.65371,1.39842c0.43581,0.34195 1.01812,0.51292 1.74695,0.51292c0.67961,0 1.20054,-0.13864 1.56281,-0.41591c0.36226,-0.27728 0.54339,-0.65514 0.54339,-1.13358c0,-0.47844 -0.16768,-0.84844 -0.50305,-1.10998c-0.33537,-0.26154 -0.94343,-0.51979 -1.8242,-0.77475z" fill="#7e98f0" stroke="none" stroke-width="1"/><path d="M281.87414,90.93765c-0.12076,1.03272 -0.50191,1.82964 -1.14345,2.39079c-0.64155,0.56114 -1.49443,0.84171 -2.55862,0.84171c-1.15346,0 -2.07787,-0.41364 -2.77322,-1.24089c-0.69535,-0.82726 -1.04302,-1.93379 -1.04302,-3.31962v-0.93915c0,-0.90767 0.16211,-1.70574 0.48631,-2.39421c0.3242,-0.68848 0.78363,-1.21714 1.37824,-1.58599c0.59462,-0.36884 1.28325,-0.55327 2.06586,-0.55327c1.0373,0 1.86898,0.28944 2.49508,0.86832c0.6261,0.57888 0.99051,1.38039 1.09324,2.40452h-1.29454c-0.11188,-0.77804 -0.3544,-1.34148 -0.72754,-1.6903c-0.37314,-0.34882 -0.89508,-0.52322 -1.56582,-0.52322c-0.82268,0 -1.46766,0.30403 -1.93494,0.9121c-0.46728,0.60807 -0.70092,1.47324 -0.70092,2.59552v0.94558c0,1.05961 0.22134,1.90247 0.66402,2.52857c0.44267,0.6261 1.0619,0.93914 1.85769,0.93914c0.71538,0 1.26421,-0.1621 1.64651,-0.48631c0.3823,-0.3242 0.63597,-0.88864 0.76102,-1.69329h1.29454z" fill="#7e98f0" stroke="none" stroke-width="1"/><path d="M290.60256,89.46884c0,0.95688 -0.16096,1.79188 -0.48288,2.50496c-0.32192,0.71308 -0.77804,1.25749 -1.36837,1.6332c-0.59032,0.37571 -1.27895,0.56357 -2.06586,0.56357c-0.76917,0 -1.45107,-0.18887 -2.04568,-0.56658c-0.59462,-0.37772 -1.05633,-0.91654 -1.38511,-1.61646c-0.32878,-0.69992 -0.49761,-1.51029 -0.50649,-2.43113v-0.70436c0,-0.93885 0.16325,-1.76826 0.48975,-2.48821c0.3265,-0.71995 0.7882,-1.27107 1.38511,-1.65337c0.59691,-0.3823 1.27981,-0.57344 2.04869,-0.57344c0.78234,0 1.47195,0.18886 2.06886,0.56658c0.59691,0.37772 1.05632,0.92541 1.37824,1.64307c0.32192,0.71766 0.48288,1.55266 0.48288,2.50497v0.61722zM289.32133,88.83873c0,-1.15804 -0.2325,-2.04669 -0.69749,-2.66592c-0.46499,-0.61923 -1.11556,-0.92885 -1.95168,-0.92885c-0.81381,0 -1.45436,0.30962 -1.92164,0.92885c-0.46728,0.61923 -0.70765,1.47882 -0.7211,2.57879v0.71766c0,1.12229 0.23579,2.0042 0.70736,2.64574c0.47158,0.64154 1.121,0.96232 1.94825,0.96232c0.83155,0 1.4754,-0.30289 1.93151,-0.90867c0.45613,-0.60578 0.69091,-1.47425 0.70436,-2.6054v-0.72453z" fill="#7e98f0" stroke="none" stroke-width="1"/><path d="M295.27153,90.08606h-2.29378v3.95016h-1.29454v-9.76487h3.23249c1.09997,0 1.94611,0.25038 2.53844,0.75114c0.59233,0.50077 0.8885,1.22959 0.8885,2.18648c0,0.60807 -0.16425,1.13788 -0.49275,1.58942c-0.32849,0.45155 -0.78563,0.78906 -1.37138,1.01254l2.29378,4.1446v0.0807h-1.38168zM292.97818,89.03318h1.9783c0.63926,0 1.14789,-0.1654 1.52589,-0.49619c0.378,-0.33079 0.56686,-0.77346 0.56658,-1.32802c0,-0.60349 -0.17999,-1.06619 -0.53997,-1.38811c-0.35998,-0.32192 -0.87977,-0.48517 -1.55937,-0.48975h-1.97185v3.70207z" fill="#7e98f0" stroke="none" stroke-width="1"/><path d="M305.40982,89.52249h-4.23173v3.46084h4.91591v1.05289h-6.20358v-9.76487h6.13663v1.05975h-4.84896v3.13893h4.23173v1.05289z" fill="#7e98f0" stroke="none" stroke-width="1"/><path d="M216.49867,93.16692h4.62748v1.05289h-5.92202v-9.76487h1.29454z" fill="#7e98f0" stroke="none" stroke-width="1"/></g></g></svg>