<svg version="1.1" xmlns="http://www.w3.org/2000/svg" xmlns:xlink="http://www.w3.org/1999/xlink" width="322.90391" height="276" viewBox="0,0,322.90391,276"><g transform="translate(-24.49402,-81.00901)"><g data-paper-data="{&quot;isPaintingLayer&quot;:true}" fill-rule="nonzero" stroke-linecap="butt" stroke-linejoin="miter" stroke-miterlimit="10" stroke-dasharray="" stroke-dashoffset="0" style="mix-blend-mode: normal"><path d="M33.49402,328.409c0,-52.36663 0,-193.43471 0,-221c0,-9.14161 7.34865,-17.39999 15.96754,-17.39999c31.20951,0 218.65285,0 273.72919,0c9.62473,0 15.20718,6.67757 15.20718,14.39999c0,25.51553 0,167.24052 0,222c0,13.40622 -6.46569,21.60001 -17.48825,21.60001c-59.04666,0 -248.85879,0 -276.01027,0c-6.35151,0 -11.40538,-7.38811 -11.40538,-19.60001z" fill="none" stroke="#00ffb9" stroke-width="18"/><path d="M188.24103,96.39836v-11.57564h3.7846c1.2561,0 2.20081,0.25966 2.83412,0.779c0.63331,0.51934 0.94997,1.28782 0.94997,2.30546c0,0.54071 -0.15367,1.019 -0.46099,1.43488c-0.30732,0.41587 -0.72609,0.73779 -1.25628,0.96573c0.62551,0.17504 1.11975,0.50763 1.4827,0.99779c0.36295,0.49016 0.54443,1.07446 0.54443,1.75288c0,1.03901 -0.3365,1.85532 -1.0095,2.44895c-0.673,0.59363 -1.62431,0.89043 -2.85396,0.89043h-4.01509zM189.76748,90.98402v4.16621h2.52018c0.71031,0 1.27086,-0.18419 1.68165,-0.55257c0.41079,-0.36838 0.61618,-0.87585 0.61618,-1.52239c0,-1.39382 -0.75798,-2.09074 -2.27391,-2.09074h-2.54409zM189.76748,89.7598h2.30546c0.66791,0 1.20183,-0.16689 1.60176,-0.50068c0.39993,-0.33379 0.60007,-0.78698 0.6004,-1.35957c0,-0.63602 -0.18555,-1.09854 -0.55665,-1.38755c-0.37109,-0.28901 -0.93555,-0.43351 -1.69335,-0.43351h-2.25814v3.6808z" fill="#13286e" stroke="none" stroke-width="1"/><path d="M203.55709,93.06868h-4.84956l-1.08938,3.02137h-1.57429l4.42063,-11.57564h1.33565l4.42825,11.57564h-1.56615zM199.16852,91.81241h3.93521l-1.97167,-5.41434z" fill="#13286e" stroke="none" stroke-width="1"/><path d="M208.90877,94.84141h5.48558v1.24813h-7.02018v-11.57564h1.5346z" fill="#13286e" stroke="none" stroke-width="1"/><path d="M230.52111,91.18924h-2.71913v4.68267h-1.5346v-11.57565h3.83192c1.30393,0 2.30698,0.29681 3.00915,0.89043c0.70217,0.59363 1.05326,1.4576 1.05326,2.59193c0,0.72083 -0.19471,1.34888 -0.58413,1.88416c-0.38942,0.53528 -0.93131,0.93538 -1.62568,1.2003l2.71913,4.91316v0.09566h-1.63789zM227.80247,89.94111h2.34515c0.7578,0 1.36075,-0.19607 1.80885,-0.5882c0.4481,-0.39213 0.67198,-0.91689 0.67164,-1.57429c0,-0.7154 -0.21337,-1.2639 -0.6401,-1.64552c-0.42673,-0.38162 -1.04291,-0.57514 -1.84854,-0.58057h-2.33751v4.38857z" fill="#13286e" stroke="none" stroke-width="1"/><path d="M244.39204,90.45756c0,1.13432 -0.1908,2.12416 -0.57242,2.96947c-0.38162,0.84531 -0.92232,1.49068 -1.62212,1.93606c-0.69979,0.44538 -1.51611,0.66808 -2.44895,0.66808c-0.9118,0 -1.72015,-0.22389 -2.42504,-0.67165c-0.70488,-0.44776 -1.2522,-1.0865 -1.64196,-1.91621c-0.38976,-0.82971 -0.58989,-1.79036 -0.6004,-2.88195v-0.83498c0,-1.11295 0.19351,-2.09616 0.58056,-2.94962c0.38705,-0.85346 0.93436,-1.50678 1.64196,-1.95997c0.7076,-0.45319 1.51713,-0.67978 2.4286,-0.67978c0.92741,0 1.7449,0.22388 2.45251,0.67164c0.7076,0.44776 1.2522,1.09701 1.63382,1.94776c0.38162,0.85074 0.57243,1.84058 0.57243,2.96948v0.73168zM242.8732,89.71061c0,-1.37279 -0.27561,-2.42622 -0.82683,-3.16028c-0.55122,-0.73406 -1.32242,-1.10109 -2.3136,-1.10109c-0.96472,0 -1.72405,0.36703 -2.27799,1.10109c-0.55393,0.73406 -0.83888,1.75305 -0.85482,3.05699v0.85074c0,1.3304 0.27951,2.37585 0.83853,3.13636c0.55902,0.76051 1.32887,1.14077 2.30953,1.14077c0.98575,0 1.74898,-0.35906 2.28969,-1.07717c0.54071,-0.71811 0.81903,-1.74763 0.83497,-3.08854v-0.85888z" fill="#13286e" stroke="none" stroke-width="1"/><path d="M247.63389,92.22265l0.22286,1.52646l0.32615,-1.37534l2.28969,-8.07751h1.28782l2.23423,8.07751l0.31801,1.39925l0.24627,-1.55851l1.79664,-7.91876h1.5346l-2.80665,11.57564h-1.39111l-2.38535,-8.43521l-0.18267,-0.88229l-0.18266,0.88229l-2.47235,8.43521h-1.39111l-2.79851,-11.57564h1.52646z" fill="#13286e" stroke="none" stroke-width="1"/><path d="M273.10252,90.71197c-1.30902,-0.37618 -2.2617,-0.8387 -2.85804,-1.38755c-0.59633,-0.54885 -0.8945,-1.22591 -0.8945,-2.03121c0,-0.9118 0.36432,-1.66571 1.09294,-2.2617c0.72863,-0.59599 1.67605,-0.89416 2.84226,-0.8945c0.79512,0 1.50407,0.15366 2.12687,0.46099c0.62279,0.30732 1.10516,0.73135 1.44708,1.27205c0.34193,0.54071 0.51289,1.13162 0.51289,1.77273h-1.5346c0,-0.69979 -0.22269,-1.24966 -0.66808,-1.64959c-0.44538,-0.39993 -1.07344,-0.60007 -1.88416,-0.60041c-0.75271,0 -1.33972,0.16571 -1.76103,0.49712c-0.4213,0.33141 -0.63195,0.79121 -0.63195,1.3794c0,0.47185 0.20013,0.87076 0.60041,1.19674c0.40027,0.32599 1.08141,0.62416 2.04342,0.89451c0.96201,0.27035 1.71472,0.56852 2.25814,0.89451c0.54342,0.32599 0.94624,0.70624 1.20844,1.14077c0.26221,0.43453 0.39332,0.94606 0.39332,1.53459c0,0.93827 -0.36568,1.68963 -1.09702,2.25408c-0.73134,0.56445 -1.70929,0.84668 -2.93385,0.84668c-0.79512,0 -1.53715,-0.1523 -2.22609,-0.45692c-0.68894,-0.30462 -1.22031,-0.72201 -1.59413,-1.25221c-0.37382,-0.53019 -0.56072,-1.13179 -0.56072,-1.80479h1.5346c0,0.69979 0.25831,1.25238 0.77493,1.65774c0.51662,0.40536 1.20692,0.60804 2.0709,0.60804c0.80563,0 1.42317,-0.16435 1.85261,-0.49304c0.42944,-0.3287 0.64416,-0.77663 0.64416,-1.34379c0,-0.56716 -0.19878,-1.00577 -0.59633,-1.31581c-0.39756,-0.31004 -1.11838,-0.61618 -2.16248,-0.91842z" fill="#13286e" stroke="none" stroke-width="1"/><path d="M287.38287,92.19874c-0.14315,1.22422 -0.59498,2.16893 -1.35549,2.83413c-0.76052,0.6652 -1.77155,0.99779 -3.03308,0.99779c-1.36736,0 -2.46319,-0.49034 -3.28748,-1.471c-0.82429,-0.98066 -1.23643,-2.29239 -1.23643,-3.9352v-1.1133c0,-1.07599 0.19217,-2.02205 0.57649,-2.83819c0.38432,-0.81615 0.92894,-1.44284 1.63382,-1.88009c0.70488,-0.43724 1.52121,-0.65587 2.44895,-0.65587c1.22965,0 2.21556,0.34311 2.95776,1.02934c0.7422,0.68623 1.17419,1.63637 1.29597,2.85041h-1.5346c-0.13263,-0.92232 -0.42012,-1.59024 -0.86245,-2.00374c-0.44233,-0.4135 -1.06106,-0.62025 -1.85618,-0.62025c-0.97524,0 -1.73982,0.36041 -2.29375,1.08124c-0.55393,0.72083 -0.8309,1.74643 -0.8309,3.07683v1.12093c0,1.2561 0.26238,2.25526 0.78715,2.99746c0.52476,0.7422 1.25882,1.11329 2.20217,1.11329c0.84804,0 1.49864,-0.19216 1.95183,-0.57649c0.45319,-0.38432 0.7539,-1.05343 0.90214,-2.00729h1.5346z" fill="#13286e" stroke="none" stroke-width="1"/><path d="M297.72987,90.45756c0,1.13432 -0.19081,2.12416 -0.57242,2.96947c-0.38162,0.84531 -0.92232,1.49068 -1.62212,1.93606c-0.69979,0.44538 -1.51611,0.66808 -2.44895,0.66808c-0.9118,0 -1.72015,-0.22389 -2.42503,-0.67165c-0.70488,-0.44776 -1.25221,-1.0865 -1.64196,-1.91621c-0.38975,-0.82971 -0.58989,-1.79036 -0.60041,-2.88195v-0.83498c0,-1.11295 0.19352,-2.09616 0.58057,-2.94962c0.38704,-0.85346 0.93436,-1.50678 1.64196,-1.95997c0.7076,-0.45319 1.51713,-0.67978 2.4286,-0.67978c0.92741,0 1.74491,0.22388 2.45251,0.67164c0.7076,0.44776 1.2522,1.09701 1.63382,1.94776c0.38162,0.85074 0.57242,1.84058 0.57242,2.96948v0.73168zM296.21105,89.71061c0,-1.37279 -0.27561,-2.42622 -0.82683,-3.16028c-0.55122,-0.73406 -1.32243,-1.10109 -2.3136,-1.10109c-0.96472,0 -1.72405,0.36703 -2.27798,1.10109c-0.55393,0.73406 -0.83888,1.75305 -0.85482,3.05699v0.85074c0,1.3304 0.27951,2.37585 0.83853,3.13636c0.55903,0.76051 1.32887,1.14077 2.30953,1.14077c0.98575,0 1.74899,-0.35906 2.28969,-1.07717c0.54071,-0.71811 0.81903,-1.74763 0.83497,-3.08854v-0.85888z" fill="#13286e" stroke="none" stroke-width="1"/><path d="M303.26464,91.18924h-2.71913v4.68267h-1.5346v-11.57565h3.83192c1.30394,0 2.30699,0.29681 3.00916,0.89043c0.70217,0.59363 1.05326,1.4576 1.05326,2.59193c0,0.72083 -0.19471,1.34888 -0.58413,1.88416c-0.38941,0.53528 -0.93131,0.93538 -1.62568,1.2003l2.71913,4.91316v0.09566h-1.63789zM300.54602,89.94111h2.34515c0.7578,0 1.36075,-0.19607 1.80885,-0.5882c0.4481,-0.39213 0.67198,-0.91689 0.67164,-1.57429c0,-0.7154 -0.21337,-1.2639 -0.6401,-1.64552c-0.42673,-0.38162 -1.04291,-0.57514 -1.84854,-0.58057h-2.33751v4.38857z" fill="#13286e" stroke="none" stroke-width="1"/><path d="M315.28295,90.52116h-5.01645v4.10261h5.82751v1.24814h-7.35396v-11.57565h7.27459v1.25627h-5.74814v3.721h5.01645v1.24813z" fill="#13286e" stroke="none" stroke-width="1"/><path d="M216.99696,94.84141h5.48559v1.24813h-7.02018v-11.57564h1.5346z" fill="#13286e" stroke="none" stroke-width="1"/></g></g></svg>