<svg version="1.1" xmlns="http://www.w3.org/2000/svg" xmlns:xlink="http://www.w3.org/1999/xlink" width="16.469" height="23.063" viewBox="0,0,16.469,23.063"><g transform="translate(-231.688,-165.25)"><g data-paper-data="{&quot;isPaintingLayer&quot;:true}" fill="#ff0000" fill-rule="nonzero" stroke="none" stroke-width="1" stroke-linecap="butt" stroke-linejoin="miter" stroke-miterlimit="10" stroke-dasharray="" stroke-dashoffset="0" style="mix-blend-mode: normal"><path d="M248.156,165.25v15.469c-0.01067,2.146 -0.685,3.90133 -2.023,5.266c-1.338,1.36467 -3.153,2.13033 -5.445,2.297l-0.797,0.031c-2.48933,0 -4.47367,-0.672 -5.953,-2.016c-1.47933,-1.344 -2.22933,-3.193 -2.25,-5.547v-15.5h2.969v15.406c0,1.646 0.453,2.92467 1.359,3.836c0.906,0.91133 2.19767,1.367 3.875,1.367c1.698,0 2.99733,-0.453 3.898,-1.359c0.90067,-0.906 1.35133,-2.182 1.352,-3.828v-15.422h3.016z"/></g></g></svg>