<svg version="1.1" xmlns="http://www.w3.org/2000/svg" xmlns:xlink="http://www.w3.org/1999/xlink" width="15.375" height="24.078" viewBox="0,0,15.375,24.078"><g transform="translate(-232.811,-164.983)"><g data-paper-data="{&quot;isPaintingLayer&quot;:true}" fill="#ffffff" fill-rule="nonzero" stroke="#000000" stroke-width="1" stroke-linecap="butt" stroke-linejoin="miter" stroke-miterlimit="10" stroke-dasharray="" stroke-dashoffset="0" style="mix-blend-mode: normal"><path d="M244.484,165.484v2.453h-0.531c-2.25,0.042 -4.04167,0.70867 -5.375,2c-1.33333,1.29133 -2.10433,3.109 -2.313,5.453c1.198,-1.37533 2.83333,-2.063 4.906,-2.063c1.97933,0 3.56,0.698 4.742,2.094c1.182,1.396 1.773,3.198 1.773,5.406c0,2.344 -0.638,4.219 -1.914,5.625c-1.276,1.406 -2.987,2.109 -5.133,2.109c-2.17733,0 -3.943,-0.836 -5.297,-2.508c-1.354,-1.672 -2.031,-3.82567 -2.031,-6.461v-1.109c0,-4.18733 0.89333,-7.388 2.68,-9.602c1.78667,-2.214 4.44567,-3.34667 7.977,-3.398h0.516zM240.688,175.734c-0.98933,0 -1.90067,0.297 -2.734,0.891c-0.83333,0.594 -1.41133,1.33867 -1.734,2.234v1.063c0,1.87533 0.422,3.38567 1.266,4.531c0.844,1.14533 1.896,1.71833 3.156,1.719c1.302,0 2.32533,-0.47933 3.07,-1.438c0.74467,-0.95867 1.117,-2.214 1.117,-3.766c0,-1.56267 -0.37767,-2.82567 -1.133,-3.789c-0.75533,-0.96333 -1.758,-1.445 -3.008,-1.445z"/></g></g></svg>