<svg version="1.1" xmlns="http://www.w3.org/2000/svg" xmlns:xlink="http://www.w3.org/1999/xlink" width="16.344" height="24.063" viewBox="0,0,16.344,24.063"><g transform="translate(-231.953,-164.437)"><g data-paper-data="{&quot;isPaintingLayer&quot;:true}" fill="#ffffff" fill-rule="nonzero" stroke="#000000" stroke-width="1" stroke-linecap="butt" stroke-linejoin="miter" stroke-miterlimit="10" stroke-dasharray="" stroke-dashoffset="0" style="mix-blend-mode: normal"><path d="M247.797,188h-14.906v-2.078l7.875,-8.75c1.16667,-1.32267 1.97133,-2.39833 2.414,-3.227c0.44267,-0.82867 0.664,-1.68533 0.664,-2.57c0,-1.18733 -0.35933,-2.16133 -1.078,-2.922c-0.71867,-0.76067 -1.677,-1.141 -2.875,-1.141c-1.43733,0 -2.55467,0.409 -3.352,1.227c-0.79733,0.818 -1.19567,1.956 -1.195,3.414h-2.891c0,-2.094 0.67433,-3.78667 2.023,-5.078c1.34867,-1.29133 3.15333,-1.93733 5.414,-1.938c2.11467,0 3.78667,0.55467 5.016,1.664c1.22933,1.10933 1.844,2.586 1.844,4.43c0,2.23933 -1.427,4.906 -4.281,8l-6.094,6.609h11.422v2.359z"/></g></g></svg>