<svg version="1.1" xmlns="http://www.w3.org/2000/svg" xmlns:xlink="http://www.w3.org/1999/xlink" width="505" height="391" viewBox="0,0,505,391"><g transform="translate(10.5,17.10001)"><g data-paper-data="{&quot;isPaintingLayer&quot;:true}" fill-rule="nonzero" stroke-linecap="butt" stroke-linejoin="miter" stroke-miterlimit="10" stroke-dasharray="" stroke-dashoffset="0" style="mix-blend-mode: normal"><path d="M-9.5,372.89999v-389h503v389z" fill-opacity="0.78039" fill="#000000" stroke="#000000" stroke-width="2"/><path d="M60,207c0,-21.56718 0,-51.42327 0,-62c0,-7.45227 8.23927,-16 18,-16c35.86468,0 254.2839,0 322,0c12.61512,0 20,9.16886 20,17c0,11.70064 0,45.71534 0,67c0,10.56957 -8.75229,18 -19,18c-36.57434,0 -253.54456,0 -321,0c-12.61421,0 -20,-10.3366 -20,-24z" fill="#000000" stroke="#ffffff" stroke-width="4"/><text transform="translate(80.23006,162.69375) scale(0.5,0.5)" font-size="40" xml:space="preserve" fill="#fefefe" fill-rule="nonzero" stroke="none" stroke-width="1" stroke-linecap="butt" stroke-linejoin="miter" stroke-miterlimit="10" stroke-dasharray="" stroke-dashoffset="0" font-family="Sans Serif" font-weight="normal" text-anchor="start" style="mix-blend-mode: normal"><tspan x="0" dy="0">A new version of Shape Breaker</tspan><tspan x="0" dy="46.150000000000006px">has been released. Please refresh</tspan><tspan x="0" dy="46.150000000000006px">your web browser.</tspan></text></g></g></svg>