<svg version="1.1" xmlns="http://www.w3.org/2000/svg" xmlns:xlink="http://www.w3.org/1999/xlink" width="42" height="42" viewBox="0,0,42,42"><defs><radialGradient cx="240" cy="180" r="19" gradientUnits="userSpaceOnUse" id="color-1"><stop offset="0" stop-color="#76ff00"/><stop offset="1" stop-color="#ffea00"/></radialGradient></defs><g transform="translate(-219,-159)"><g data-paper-data="{&quot;isPaintingLayer&quot;:true}" fill-rule="nonzero" stroke-linejoin="miter" stroke-miterlimit="10" stroke-dasharray="" stroke-dashoffset="0" style="mix-blend-mode: normal"><path d="M221,180c0,-10.49341 8.50659,-19 19,-19c10.49341,0 19,8.50659 19,19c0,10.49341 -8.50659,19 -19,19c-10.49341,0 -19,-8.50659 -19,-19z" fill="url(#color-1)" stroke="#ffffff" stroke-width="4" stroke-linecap="butt"/><path d="M234.125,183.1v-8.75" fill="#ffffff" stroke="#000000" stroke-width="2" stroke-linecap="round"/><path d="M238.75,178.725h-8.75" fill="#ffffff" stroke="#000000" stroke-width="2" stroke-linecap="round"/><path d="M250.99611,186.45185h-10.49401v-1.46294l5.5441,-6.16011c0.82135,-0.93118 1.38784,-1.68845 1.69949,-2.27185c0.31165,-0.58339 0.46746,-1.18649 0.46746,-1.80931c0,-0.8359 -0.25297,-1.5216 -0.75893,-2.05712c-0.50595,-0.53552 -1.18063,-0.80328 -2.02404,-0.80328c-1.0119,0 -1.79852,0.28794 -2.35985,0.86382c-0.56133,0.57588 -0.84177,1.37705 -0.8413,2.4035h-2.0353c0,-1.4742 0.47474,-2.66586 1.42422,-3.57498c0.94948,-0.90911 2.21998,-1.3639 3.81152,-1.36438c1.48875,0 2.66586,0.39049 3.53133,1.17148c0.86546,0.78098 1.2982,1.82058 1.2982,3.11878c0,1.57652 -1.00463,3.45389 -3.01388,5.6321l-4.29025,4.65282h8.04123v1.66077z" fill="#000000" stroke="#000000" stroke-width="1" stroke-linecap="butt"/></g></g></svg>