<svg version="1.1" xmlns="http://www.w3.org/2000/svg" xmlns:xlink="http://www.w3.org/1999/xlink" width="42" height="42" viewBox="0,0,42,42"><g transform="translate(-219,-159)"><g data-paper-data="{&quot;isPaintingLayer&quot;:true}" fill-rule="nonzero" stroke-linejoin="miter" stroke-miterlimit="10" stroke-dasharray="" stroke-dashoffset="0" style="mix-blend-mode: normal"><path d="M221,180c0,-10.49341 8.50659,-19 19,-19c10.49341,0 19,8.50659 19,19c0,10.49341 -8.50659,19 -19,19c-10.49341,0 -19,-8.50659 -19,-19z" fill="#94ffe9" stroke="#ffffff" stroke-width="4" stroke-linecap="butt"/><g fill="none" stroke="#000000" stroke-width="2" stroke-linecap="round"><path d="M240.24569,176.62586v-9.17242"/><path d="M236.15086,169.74655l4.09483,-3.27587l3.93103,3.27587"/></g><g fill="none" stroke="#000000" stroke-width="2" stroke-linecap="round"><path d="M240.16811,184.57414l0,9.17241"/><path d="M244.26293,191.45344l-4.09483,3.27587l-3.93103,-3.27587"/></g><g fill="none" stroke="#000000" stroke-width="2" stroke-linecap="round"><path d="M236.24138,180.81121l-9.17242,0"/><path d="M229.36208,184.90603l-3.27587,-4.09482l3.27587,-3.93104"/></g><g fill="none" stroke="#000000" stroke-width="2" stroke-linecap="round"><path d="M243.69828,180.73362h9.17241"/><path d="M250.57758,176.63879l3.27587,4.09483l-3.27587,3.93103"/></g></g></g></svg>