<svg version="1.1" xmlns="http://www.w3.org/2000/svg" xmlns:xlink="http://www.w3.org/1999/xlink" width="42" height="42" viewBox="0,0,42,42"><g transform="translate(-219,-159)"><g data-paper-data="{&quot;isPaintingLayer&quot;:true}" fill-rule="nonzero" stroke-linejoin="miter" stroke-miterlimit="10" stroke-dasharray="" stroke-dashoffset="0" style="mix-blend-mode: normal"><path d="M221,180c0,-10.49341 8.50659,-19 19,-19c10.49341,0 19,8.50659 19,19c0,10.49341 -8.50659,19 -19,19c-10.49341,0 -19,-8.50659 -19,-19z" fill="#ff949f" stroke="#ffffff" stroke-width="4" stroke-linecap="butt"/><g data-paper-data="{&quot;index&quot;:null}" fill="none" stroke="#000000" stroke-width="2" stroke-linecap="round"><path d="M240.24569,175.6431v-9.17242"/><path d="M244.17672,173.34999l-3.93103,3.27587l-4.09483,-3.27587"/></g><g data-paper-data="{&quot;index&quot;:null}" fill="none" stroke="#000000" stroke-width="2" stroke-linecap="round"><path d="M240.16811,185.5569v9.17241"/><path d="M236.23707,187.85001l3.93103,-3.27587l4.09483,3.27587"/></g><g data-paper-data="{&quot;index&quot;:null}" fill="none" stroke="#000000" stroke-width="2" stroke-linecap="round"><path d="M226.08621,180.81121h9.17242"/><path d="M232.96551,176.88017l3.27587,3.93104l-3.27587,4.09482"/></g><g data-paper-data="{&quot;index&quot;:null}" fill="none" stroke="#000000" stroke-width="2" stroke-linecap="round"><path d="M244.68104,180.73362h9.17241"/><path d="M246.97415,184.66465l-3.27587,-3.93103l3.27587,-4.09483"/></g></g></g></svg>