<svg version="1.1" xmlns="http://www.w3.org/2000/svg" xmlns:xlink="http://www.w3.org/1999/xlink" width="42" height="42" viewBox="0,0,42,42"><defs><radialGradient cx="240" cy="180" r="19" gradientUnits="userSpaceOnUse" id="color-1"><stop offset="0" stop-color="#df94ff"/><stop offset="1" stop-color="#94c9ff"/></radialGradient></defs><g transform="translate(-219,-159)"><g data-paper-data="{&quot;isPaintingLayer&quot;:true}" fill-rule="nonzero" stroke-linejoin="miter" stroke-miterlimit="10" stroke-dasharray="" stroke-dashoffset="0" style="mix-blend-mode: normal"><path d="M221,180c0,-10.49341 8.50659,-19 19,-19c10.49341,0 19,8.50659 19,19c0,10.49341 -8.50659,19 -19,19c-10.49341,0 -19,-8.50659 -19,-19z" fill="url(#color-1)" stroke="#fdfdfd" stroke-width="4" stroke-linecap="butt"/><path d="M250.547,186.5h-10.06639v-1.40332l5.31818,-5.90909c0.78788,-0.89323 1.33129,-1.61966 1.63024,-2.17928c0.29895,-0.55962 0.44841,-1.13814 0.44841,-1.73558c0,-0.80184 -0.24266,-1.4596 -0.728,-1.9733c-0.48534,-0.5137 -1.13252,-0.77054 -1.94156,-0.77054c-0.97066,0 -1.72523,0.27621 -2.26369,0.82862c-0.53845,0.55241 -0.80746,1.32093 -0.80701,2.30556h-1.95236c0,-1.41413 0.45539,-2.55723 1.36618,-3.4293c0.91079,-0.87206 2.12953,-1.30833 3.65621,-1.30878c1.42809,0 2.55723,0.37458 3.38742,1.12374c0.8302,0.74916 1.2453,1.74639 1.2453,2.99169c0,1.51227 -0.96369,3.31315 -2.89107,5.4026l-4.11543,4.46322h7.71356v1.59309z" fill="#000000" stroke="#000000" stroke-width="1" stroke-linecap="butt"/><path d="M238.375,185.6l-7.75,-10.25" fill="none" stroke="#000000" stroke-width="2" stroke-linecap="round"/><path d="M230.375,185.6l7.75,-10.25" data-paper-data="{&quot;index&quot;:null}" fill="none" stroke="#000000" stroke-width="2" stroke-linecap="round"/></g></g></svg>