<svg version="1.1" xmlns="http://www.w3.org/2000/svg" xmlns:xlink="http://www.w3.org/1999/xlink" width="14.297" height="23.063" viewBox="0,0,14.297,23.063"><g transform="translate(-233.406,-165.25)"><g data-paper-data="{&quot;isPaintingLayer&quot;:true}" fill="#ff0000" fill-rule="nonzero" stroke="none" stroke-width="1" stroke-linecap="butt" stroke-linejoin="miter" stroke-miterlimit="10" stroke-dasharray="" stroke-dashoffset="0" style="mix-blend-mode: normal"><path d="M234.219,176.594l1.156,-11.344h11.656v2.672h-9.203l-0.688,6.203c1.11467,-0.656 2.38033,-0.984 3.797,-0.984c2.07267,0 3.71867,0.685 4.938,2.055c1.21933,1.37 1.82867,3.22167 1.828,5.555c0,2.344 -0.63267,4.19033 -1.898,5.539c-1.26533,1.34867 -3.03367,2.023 -5.305,2.023c-2.01067,0 -3.65133,-0.55733 -4.922,-1.672c-1.27067,-1.11467 -1.99467,-2.65633 -2.172,-4.625h2.734c0.17733,1.302 0.641,2.28367 1.391,2.945c0.75,0.66133 1.73967,0.992 2.969,0.992c1.344,0 2.39867,-0.45833 3.164,-1.375c0.76533,-0.91667 1.148,-2.18233 1.148,-3.797c0,-1.52067 -0.414,-2.742 -1.242,-3.664c-0.828,-0.922 -1.92967,-1.383 -3.305,-1.383c-1.26067,0 -2.25033,0.276 -2.969,0.828l-0.766,0.625z"/></g></g></svg>