<svg version="1.1" xmlns="http://www.w3.org/2000/svg" xmlns:xlink="http://www.w3.org/1999/xlink" width="14.312" height="23.078" viewBox="0,0,14.312,23.078"><g transform="translate(-232.562,-164.936)"><g data-paper-data="{&quot;isPaintingLayer&quot;:true}" fill="#ff0000" fill-rule="nonzero" stroke="none" stroke-width="1" stroke-linecap="butt" stroke-linejoin="miter" stroke-miterlimit="10" stroke-dasharray="" stroke-dashoffset="0" style="mix-blend-mode: normal"><path d="M243.969,178c-0.604,0.71867 -1.32533,1.29667 -2.164,1.734c-0.83867,0.43733 -1.758,0.656 -2.758,0.656c-1.31267,0 -2.456,-0.323 -3.43,-0.969c-0.974,-0.646 -1.72667,-1.555 -2.258,-2.727c-0.53133,-1.172 -0.797,-2.46633 -0.797,-3.883c0,-1.52067 0.289,-2.89033 0.867,-4.109c0.578,-1.21867 1.39833,-2.151 2.461,-2.797c1.06267,-0.646 2.30233,-0.969 3.719,-0.969c2.25,0 4.02333,0.841 5.32,2.523c1.29667,1.682 1.945,3.97633 1.945,6.883v0.844c0,4.42733 -0.875,7.659 -2.625,9.695c-1.75,2.036 -4.39067,3.08033 -7.922,3.133h-0.563v-2.438h0.609c2.38533,-0.042 4.21867,-0.66433 5.5,-1.867c1.28133,-1.20267 1.97933,-3.10633 2.094,-5.711zM239.516,178c0.96867,0 1.862,-0.297 2.68,-0.891c0.818,-0.594 1.41433,-1.32833 1.789,-2.203v-1.156c0,-1.896 -0.41133,-3.43767 -1.234,-4.625c-0.82267,-1.18733 -1.86433,-1.781 -3.125,-1.781c-1.27067,0 -2.29167,0.487 -3.063,1.461c-0.77133,0.974 -1.15667,2.258 -1.156,3.852c0,1.552 0.37233,2.83067 1.117,3.836c0.74467,1.00533 1.742,1.508 2.992,1.508z"/></g></g></svg>