<svg version="1.1" xmlns="http://www.w3.org/2000/svg" xmlns:xlink="http://www.w3.org/1999/xlink" width="14.422" height="23.374" viewBox="0,0,14.422,23.374"><g transform="translate(-232.469,-164.938)"><g data-paper-data="{&quot;isPaintingLayer&quot;:true}" fill="#ff0000" fill-rule="nonzero" stroke="none" stroke-width="1" stroke-linecap="butt" stroke-linejoin="miter" stroke-miterlimit="10" stroke-dasharray="" stroke-dashoffset="0" style="mix-blend-mode: normal"><path d="M237.094,175.219h2.172c1.36467,-0.02067 2.43767,-0.38 3.219,-1.078c0.78133,-0.698 1.172,-1.64067 1.172,-2.828c0,-2.66667 -1.328,-4 -3.984,-4c-1.25,0 -2.24733,0.35667 -2.992,1.07c-0.74467,0.71333 -1.117,1.65867 -1.117,2.836h-2.891c0,-1.802 0.659,-3.29933 1.977,-4.492c1.318,-1.19267 2.99233,-1.789 5.023,-1.789c2.146,0 3.82833,0.56767 5.047,1.703c1.21867,1.13533 1.828,2.71333 1.828,4.734c0,0.98933 -0.32033,1.94767 -0.961,2.875c-0.64067,0.92733 -1.513,1.62 -2.617,2.078c1.25,0.396 2.216,1.05233 2.898,1.969c0.682,0.91667 1.023,2.03633 1.023,3.359c0,2.042 -0.66667,3.66167 -2,4.859c-1.33333,1.19733 -3.06767,1.79633 -5.203,1.797c-2.13533,0.00067 -3.87233,-0.57733 -5.211,-1.734c-1.33867,-1.15667 -2.008,-2.68267 -2.008,-4.578h2.906c0,1.198 0.39067,2.15633 1.172,2.875c0.78133,0.71867 1.82833,1.078 3.141,1.078c1.396,0 2.46367,-0.36467 3.203,-1.094c0.73933,-0.72933 1.109,-1.77633 1.109,-3.141c0,-1.32267 -0.40633,-2.33833 -1.219,-3.047c-0.81267,-0.70867 -1.98467,-1.07333 -3.516,-1.094h-2.172v-2.359z"/></g></g></svg>