<svg version="1.1" xmlns="http://www.w3.org/2000/svg" xmlns:xlink="http://www.w3.org/1999/xlink" width="14.36" height="23.375" viewBox="0,0,14.36,23.375"><g transform="translate(-232.796,-164.938)"><g data-paper-data="{&quot;isPaintingLayer&quot;:true}" fill="#ff0000" fill-rule="nonzero" stroke="none" stroke-width="1" stroke-linecap="butt" stroke-linejoin="miter" stroke-miterlimit="10" stroke-dasharray="" stroke-dashoffset="0" style="mix-blend-mode: normal"><path d="M247.156,178.297c0,3.38533 -0.578,5.901 -1.734,7.547c-1.156,1.646 -2.96333,2.469 -5.422,2.469c-2.42733,0 -4.22433,-0.80467 -5.391,-2.414c-1.16667,-1.60933 -1.771,-4.013 -1.813,-7.211v-3.859c0,-3.344 0.578,-5.82833 1.734,-7.453c1.156,-1.62467 2.96867,-2.43733 5.438,-2.438c2.448,0 4.25,0.784 5.406,2.352c1.156,1.568 1.74967,3.98733 1.781,7.258v3.75zM244.266,174.344c0,-2.448 -0.34367,-4.232 -1.031,-5.352c-0.68733,-1.12 -1.776,-1.68 -3.266,-1.68c-1.47933,0 -2.55733,0.55733 -3.234,1.672c-0.67667,1.11467 -1.02567,2.82833 -1.047,5.141v4.625c0,2.45867 0.35667,4.27367 1.07,5.445c0.71333,1.17133 1.794,1.75733 3.242,1.758c1.42733,0 2.48733,-0.552 3.18,-1.656c0.69267,-1.104 1.05467,-2.84367 1.086,-5.219z"/></g></g></svg>